<?xml version="1.0" encoding="UTF-8"?>
<svg id="Layer_1" xmlns="http://www.w3.org/2000/svg" version="1.1" viewBox="0 0 750 600">
  <!-- Generator: Adobe Illustrator 29.6.1, SVG Export Plug-In . SVG Version: 2.1.1 Build 9)  -->
  <defs>
    <style>
      .st0 {
        fill: #0014a8;
      }
    </style>
  </defs>
  <path class="st0" d="M449.82,549.85c-.1-.51-.27-1.01-.52-1.46,11.67-5,23.33-11.1,34.67-18.16.21.31.45.57.72.79-11.54,7.38-23.27,13.71-34.87,18.83Z"/>
  <path class="st0" d="M403.77,562.13c.05-.53.02-1.06-.1-1.57,6.36-.97,12.74-2.26,18.97-3.84.26.6.65,1.13,1.12,1.54-6.65,1.69-13.36,2.99-19.99,3.87Z"/>
  <g>
    <g>
      <path class="st0" d="M367.89,177.7c-7.26.28-14.84-2.11-21.47-4.2-.74-.23-2.69-.84-2.69-.84-4.26-1.32-8.66-2.67-13.11-3.58-4.09-.83-7.94-.85-12.01-.87-.93,0-1.86-.01-2.8-.03-.6-.01-.99-.48-1.05-.92-.03-.2-.02-.7.64-.88,1.44-.41,3.01-.66,4.66-.77,7.13-.45,15.04,2.01,21.41,4,.16.05.24.07.39.12,9.07,3.15,19.34,5.49,29.14,6.79.22.03.33.14.33.32,0,.24-.21.54-.5.58-.95.14-1.94.23-2.94.27h0Z"/>
      <path class="st0" d="M348.43,180.35c-.05,0-.11,0-.17-.01-9.09-1.63-18.43-2.72-27.51-3.37-4.78-.34-9.73-.59-14.65-.66-.19,0-.28,0-.47,0-1.71-.03-3.33-.05-4.93.04-3.37.2-5.93.94-8.31,2.39-.17.1-.34.16-.52.17-.44.03-.88-.24-1.07-.65-.17-.36-.09-.75.21-1.05,2.13-2.09,5.33-3.25,9.82-3.52,3.54-.21,7.3.14,10.63.46,1.32.12,2.6.21,3.7.31,11.15.98,22.28,2.53,33.37,4.82.45.09.44.47.43.58-.03.24-.21.49-.54.51Z"/>
      <path class="st0" d="M350.99,198.45c-7.09.28-14.79-1.17-21.53-2.4-.93-.17-1.85-.34-2.73-.49-.47-.08-.7-.12-1.17-.21-4.95-.87-10.03-1.76-15.15-2.06-1.72-.1-3.43-.1-5.22,0-4.14.25-8.11,1.03-11.83,1.82-.06.01-.11.02-.16.02-.49.03-.85-.27-.95-.57-.05-.16-.07-.47.4-.7,3.19-1.58,6.86-2.48,11.26-2.74,5.96-.36,12.2.53,17.62,1.41,1.96.32,3.92.67,5.88,1.02,3.78.68,7.7,1.4,11.64,1.89,2.72.34,5.56.43,8.3.53,3.25.11,6.62.24,9.79.82.28.05.39.26.39.43,0,.16-.08.36-.34.42-1.86.44-3.95.71-6.19.8h0Z"/>
      <path class="st0" d="M342.25,188.95c-1.3.07-2.61.1-3.9.08-4.8-.04-9.49-.98-14-1.87-5.21-1.03-10.55-2.08-16.05-1.76-.3.02-.61.04-.91.07,0,0,0,0,0,0-.57.03-.87-.38-.92-.77-.04-.35.1-.81.64-.95,1.19-.3,2.45-.49,3.74-.57,4.5-.27,9.07.85,13.51,1.94,3.05.75,6.21,1.53,9.32,1.84,2.85.29,5.8.36,8.74.2,7.44-.39,15.21-2.23,23.11-5.54.08-.03.16-.05.23-.06.35-.02.63.3.71.61.03.12.11.54-.31.74-7.34,3.55-15.62,5.6-23.91,6.03h0Z"/>
      <path class="st0" d="M297.77,205.91c-3.2.19-6.58.3-10.35.33-4.3.03-8.79-.09-13.7-.39-.18-.01-.27-.02-.46-.03-2.02-.12-4.1-.25-6.12-.14-2.73.15-4.98.73-7.08,1.81-.19.1-.37.15-.56.16-.6.03-1.02-.38-1.13-.81-.05-.21-.1-.73.56-1.11,2.4-1.36,5.23-2.11,8.66-2.3,3.15-.18,6.4.12,9.56.41,1.97.18,3.84.35,5.65.4,4.54.14,9.37.04,15.2-.31,4.18-.25,8.43-.59,12.55-.92,1.42-.11,2.13-.17,3.55-.28.43-.02.62.33.64.58.01.12.02.5-.42.59-5.06.99-10.48,1.64-16.55,2h0Z"/>
      <path class="st0" d="M254.79,221.03c-.02.14-.1.32-.35.33-.99-.03-1.97-.03-2.92,0h0c-.92.01-1.83.05-2.73.1-.96.05-1.92.13-2.89.23h0c-3.53.37-7.11,1.03-10.91,2.03l1.51-2.4.13-.21c2.97-.72,6.09-1.3,9.16-1.47,1.6-.09,3.1-.07,4.53.07,0,0,0,0,0,0,1.23.11,2.4.31,3.53.6.2.05.39.1.59.15.28.07.38.36.36.58Z"/>
      <path class="st0" d="M283.14,177.82c-2.08.99-4.23,1.9-6.32,2.77-4.06,1.72-8.29,3.5-12.29,5.81-3.68,2.12-7.29,4.58-10.79,7.3l2.6-4.2h.01s.33-.55.33-.55c7.83-5.56,16.58-9.94,26.19-11.98h0c.24,0,.39.18.44.37.01.06.07.36-.18.47Z"/>
      <path class="st0" d="M256.18,200.89c-1.48.08-2.94-.04-4.33-.33-.78-.17-.72-.78-.69-.97.09-.45.5-.93,1.1-.96.08,0,.17,0,.25.01,1.19.17,2.4.22,3.58.16,0,0,0,0,0,0,6.39-.33,11.73-3.94,16.82-7.42,4.89-3.35,9.86-6.83,15.85-7.41,0,0,0,0,0,0,.31-.02.39.16.41.27.04.2-.06.48-.32.58-5.2,2.05-9.39,4.84-13.88,7.79-1.94,1.27-3.95,2.59-6.06,3.85-4.66,2.77-8.85,4.22-12.73,4.42t0,0Z"/>
      <path class="st0" d="M280.82,198.84c-.38.02-.76-.21-.89-.54-.07-.18-.08-.45.24-.72,3.01-2.5,6.23-4.9,9.31-7.22,2.63-1.97,5.32-4.01,7.86-6.12.14-.12.3-.18.46-.19.27-.02.53.13.64.35.1.2.04.43-.15.64-5.96,6.28-11.78,10.88-17.09,13.68-.12.06-.25.1-.38.11h0Z"/>
      <path class="st0" d="M291.8,212.74c-2.58,1.62-5.64,2.52-9.38,2.75h0c-4.3.27-8.74-.38-13.01-1.01-.44-.07-.88-.13-1.31-.19h0c-.96-.14-1.89-.27-2.81-.38-.25-.03-.51-.06-.76-.09h0c-5.6-.68-11.56-1.25-17.49-.95-1.94.1-3.81.29-5.62.58l1.38-2.21h0s.11-.18.11-.18c1.23-.15,2.49-.26,3.8-.33,3.1-.15,6.46-.09,10.31.21,2.88.22,5.82.66,8.93,1.13.76.11,1.53.23,2.31.34h0c1.15.17,2.32.32,3.49.47h0c3.31.39,6.63.62,9.89.42,3.55-.22,6.63-.92,9.43-2.15.12-.05.22-.07.33-.08.42-.03.68.3.78.6.11.33.07.8-.36,1.08Z"/>
      <path class="st0" d="M403.37,180.35c.05,0,.11,0,.17-.01,9.09-1.63,18.43-2.72,27.51-3.37,4.78-.34,9.73-.59,14.65-.66.19,0,.28,0,.47,0,1.71-.03,3.33-.05,4.93.04,3.37.2,5.93.94,8.31,2.39.17.1.34.16.52.17.44.03.88-.24,1.07-.65.17-.36.09-.75-.21-1.05-2.13-2.09-5.33-3.25-9.82-3.52-3.54-.21-7.3.14-10.63.46-1.32.12-2.6.21-3.7.31-11.15.98-22.28,2.53-33.37,4.82-.45.09-.44.47-.43.58.03.24.21.49.54.51Z"/>
      <path class="st0" d="M400.82,198.45c7.09.28,14.79-1.17,21.53-2.4.93-.17,1.85-.34,2.73-.49.47-.08.7-.12,1.17-.21,4.95-.87,10.03-1.76,15.15-2.06,1.72-.1,3.43-.1,5.22,0,4.14.25,8.11,1.03,11.83,1.82.06.01.11.02.16.02.49.03.85-.27.95-.57.05-.16.07-.47-.4-.7-3.19-1.58-6.86-2.48-11.26-2.74-5.96-.36-12.2.53-17.62,1.41-1.96.32-3.92.67-5.88,1.02-3.78.68-7.7,1.4-11.64,1.89-2.72.34-5.56.43-8.3.53-3.25.11-6.62.24-9.79.82-.28.05-.39.26-.39.43,0,.16.08.36.34.42,1.86.44,3.95.71,6.19.8h0Z"/>
      <path class="st0" d="M454.03,205.91c3.2.19,6.58.3,10.35.33,4.3.03,8.79-.09,13.7-.39.18-.01.27-.02.46-.03,2.02-.12,4.1-.25,6.12-.14,2.73.15,4.98.73,7.08,1.81.19.1.37.15.56.16.6.03,1.02-.38,1.13-.81.05-.21.1-.73-.56-1.11-2.4-1.36-5.23-2.11-8.66-2.3-3.15-.18-6.4.12-9.56.41-1.97.18-3.84.35-5.65.4-4.54.14-9.37.04-15.2-.31-4.18-.25-8.43-.59-12.55-.92-1.42-.11-2.13-.17-3.55-.28-.43-.02-.62.33-.64.58-.01.12-.01.5.42.59,5.06.99,10.48,1.64,16.55,2h0Z"/>
      <path class="st0" d="M515.52,223.38c-3.34-.82-6.5-1.38-9.64-1.7-.96-.1-1.91-.18-2.86-.23-.91-.05-1.82-.09-2.76-.1h0c-.95-.02-1.91-.02-2.89,0-.25-.01-.33-.19-.35-.33-.03-.23.08-.51.36-.58.19-.05.38-.1.57-.15,1.13-.28,2.31-.48,3.54-.6,1.44-.13,2.95-.15,4.55-.07,2.64.15,5.31.6,7.9,1.18l.12.2,1.47,2.37Z"/>
      <path class="st0" d="M496.03,192.16c-2.86-2.11-5.79-4.04-8.76-5.76-4-2.31-8.23-4.09-12.3-5.81-2.08-.88-4.23-1.79-6.31-2.77-.25-.11-.2-.41-.18-.47.04-.19.2-.37.44-.37h0c8.84,1.88,16.95,5.75,24.29,10.68l.31.5,2.5,3.99Z"/>
      <path class="st0" d="M495.63,200.89c1.49.08,2.94-.04,4.33-.33.78-.17.72-.78.69-.97-.09-.45-.5-.93-1.1-.96-.08,0-.17,0-.25.01-1.19.17-2.4.22-3.58.16,0,0,0,0,0,0-6.39-.33-11.73-3.94-16.82-7.42-4.89-3.35-9.86-6.83-15.85-7.41,0,0,0,0,0,0-.31-.02-.39.16-.41.27-.04.2.06.48.32.58,5.2,2.05,9.39,4.84,13.88,7.79,1.94,1.27,3.95,2.59,6.06,3.85,4.66,2.77,8.85,4.22,12.73,4.42t0,0Z"/>
      <path class="st0" d="M470.98,198.84c.38.02.76-.21.89-.54.07-.18.08-.45-.24-.72-3.01-2.5-6.23-4.9-9.31-7.22-2.63-1.97-5.32-4.01-7.86-6.12-.14-.12-.3-.18-.46-.19-.27-.02-.53.13-.64.35-.1.2-.04.43.15.64,5.96,6.28,11.78,10.88,17.09,13.68.12.06.25.1.38.11h0Z"/>
      <path class="st0" d="M509.22,213.29c-1.44-.2-2.91-.36-4.44-.43-5.94-.31-11.91.26-17.52.95-.25.03-.49.05-.74.09-.92.11-1.86.25-2.83.39-.43.06-.86.13-1.29.19-4.27.64-8.71,1.28-13.01,1.01h0c-3.73-.23-6.79-1.14-9.38-2.75-.44-.27-.47-.75-.36-1.08.09-.29.36-.62.78-.6.1,0,.21.03.33.08,2.8,1.23,5.88,1.93,9.43,2.15,3.25.2,6.58-.03,9.88-.42,1.17-.14,2.33-.3,3.49-.47h0c.78-.11,1.56-.23,2.33-.34,3.11-.46,6.05-.9,8.93-1.13,3.85-.29,7.21-.36,10.31-.21.9.05,1.78.12,2.64.21l.1.17,1.37,2.19Z"/>
      <g>
        <path class="st0" d="M384.63,401.71h0c-.01-.11-.03-.24-.04-.34-.04-.27-.09-.52-.17-.82v-.02c-.13-.58-.33-1.19-.58-1.78h0s-.01-.03-.03-.07c-.28-.69-.65-1.35-1.04-1.98,0-.16,0-.31-.07-.46h0c-.04-.17-.09-.33-.22-.51h0c-.02-.06-.05-.1-.09-.15-.3-.45-.7-.86-1.08-1.23h0c-.74-.68-1.58-1.2-2.49-1.54h0c-.07-.03-.13-.06-.2-.09-1.29-.64-2.73-.88-4.17-.56-.13.02-.23.06-.36.11-1.03.13-2.03.4-2.99.79h0c-.24.11-.44.19-.67.34-1.17.6-2.25,1.37-3.13,2.35h0s0,.03-.02.05c-.06.05-.11.1-.15.17h0c-.3.37-.58.77-.83,1.2-.45.76-.76,1.56-1,2.37v.03c-.11.25-.15.48-.2.76h0s0,.05-.02.09v.02c-.32,1.51-.25,3.06.1,4.51h0c.22.9.54,1.75,1.01,2.54h0v.02c.2.4.45.76.73,1.14h0s0,.01,0,.01c0,0,0,0,0,0,.65.88,1.42,1.62,2.36,2.27h.01c.12.07.2.15.33.22h0c.29.21.61.38.94.52,0,0,0,0,.01,0h0c.58.32,1.23.54,1.9.72.42.11.85.18,1.27.24h.01c.45.05.87.09,1.29.09h.16c.58,0,1.15-.07,1.7-.17h.01c.83-.13,1.61-.43,2.36-.78h.01c.09-.03.2-.11.3-.15h0c.56-.29,1.07-.65,1.54-1.04,0,0,0,0,0,0h0c.74-.59,1.36-1.31,1.9-2.12.01,0,.01-.01.01-.01.08-.14.2-.27.28-.44h0c.24-.42.45-.83.62-1.27h0c.32-.78.54-1.6.63-2.48h0c.04-.24.07-.48.07-.73h0c.07-.61.04-1.19-.04-1.83ZM380.15,404.06c-.04.12-.07.25-.1.39,0,0,0,0,0,.01,0,0,0,.01,0,.01-.06.24-.14.42-.24.66v.02s-.01.01-.01.03h0c-.08.19-.19.4-.28.55-.01,0-.01.03-.01.03,0,0-.01.01-.02.02h0c-.57.95-1.36,1.62-2.33,2.04h-.01c-.39.18-.84.31-1.28.36-.16.03-.3.05-.44.06h-.01c-.05,0-.1.01-.17,0h0c-.35.03-.69,0-1.04-.07h-.01c-.28-.03-.57-.1-.84-.21h-.03c-.29-.09-.58-.18-.88-.33-.47-.24-.9-.54-1.28-.88h-.01s0-.02,0-.02c-.4-.36-.75-.74-1-1.19,0,0,0-.03,0-.03h0c-.11-.18-.19-.3-.25-.49t0,0c-.25-.47-.42-.96-.47-1.48v-.02c-.12-.5-.14-.99-.11-1.5h0c.04-.44.13-.85.25-1.27v-.02c.18-.6.45-1.14.83-1.66.07-.11.16-.23.29-.34h0s0-.01,0-.01h0s0-.03.01-.03c.2-.29.41-.5.65-.67h.01c.13-.15.25-.24.4-.33h0s.01-.01.01-.01c.13-.08.28-.18.41-.25.23-.12.5-.21.75-.27h.05c.58-.19,1.14-.24,1.75-.18h0c.25,0,.51.02.76.09h.01c.26.06.51.13.8.19h.01c.75.2,1.52.53,2.25.87.05,0,.09.03.16.06.07.09.1.18.15.29h0s0,.01,0,.01c.15.23.29.44.41.68h0c.13.25.23.51.36.78h0c.05.14.1.29.13.44h0c.15.39.24.76.3,1.12v.03c.09.43.13.86.15,1.29v.13c0,.39-.03.73-.09,1.1h0Z"/>
        <path class="st0" d="M392.66,398.34h0c-.57-1.9-1.45-3.73-2.63-5.34.08-.48.02-1.02-.24-1.55h0c-.12-.22-.25-.46-.45-.65-.97-1.12-2.03-2.06-3.2-2.85h0s-.01,0-.01,0c-.78-.55-1.61-1.01-2.49-1.4h0c-1.37-.64-2.79-1.1-4.27-1.35h-.01c-2.49-.45-5.08-.39-7.56.19h-.01c-1.4.33-2.76.82-4.05,1.47-.58.31-1.12.59-1.65.97-1.3.82-2.49,1.82-3.59,3.02-.09.09-.18.19-.27.31h0c-.51.58-.97,1.21-1.38,1.84,0,0,0,0,0,0-.42.6-.76,1.21-1.08,1.84h0c-.46.96-.84,1.93-1.12,2.92h0c-.16.53-.28,1.04-.38,1.55h0c-.11.6-.17,1.17-.24,1.76h0c-.18,1.95-.05,3.89.37,5.78h0c.33,1.48.84,2.9,1.56,4.26h0c.59,1.23,1.37,2.39,2.28,3.45h0c.06.1.09.15.19.23h.01c.79.92,1.68,1.76,2.66,2.5.2.15.4.31.59.44h.01c.33.19.61.41.92.61h0c1.25.75,2.57,1.34,3.9,1.74,1.33.42,2.68.64,4.05.73h.01c1.3.09,2.6.03,3.89-.22h0c.16-.01.31-.03.44-.06h.04c1.61-.29,3.2-.83,4.65-1.57h.01c.17-.08.34-.15.49-.27h.01c1.49-.8,2.86-1.8,4.09-3.02h.01c.66-.66,1.28-1.37,1.84-2.1h0s.2-.3.2-.3c.8-1.11,1.44-2.3,1.93-3.53h0c.05-.14.11-.31.15-.46h0c.62-1.62.94-3.28,1.03-5,.01-.01.01-.03,0-.04h0c.08-2-.15-3.97-.73-5.88ZM388.67,406.49c-.18.56-.39,1.16-.65,1.74h0c-.08.21-.18.39-.28.58-.33.66-.73,1.26-1.15,1.86h0c-.33.46-.65.85-1.01,1.24h0c-.95,1.03-2.04,1.88-3.22,2.57h-.01c-.21.12-.42.25-.67.37h-.01c-.86.45-1.77.8-2.72,1.03h-.02c-.36.13-.73.21-1.11.25h-.01c-.96.16-1.95.22-2.93.16h-.01c-.83-.04-1.65-.16-2.48-.4h0c-1.14-.28-2.27-.74-3.36-1.4-.14-.07-.28-.18-.43-.28h0c-.14-.08-.27-.17-.38-.24v-.03s-.02,0-.02,0h0c-.54-.37-1.02-.77-1.45-1.23t0,0h-.03c-.58-.55-1.09-1.14-1.56-1.78h0c-.49-.68-.91-1.35-1.27-2.1h0c-.47-1.03-.83-2.08-1.04-3.17h0c-.35-1.86-.3-3.75.15-5.61h0s.01-.03.01-.03h0v-.03c.03-.13.07-.24.09-.34.42-1.44,1.09-2.85,2.04-4.15h.01c.01-.06.02-.09.05-.13.08-.08.15-.14.21-.21v-.02c.16-.22.29-.4.5-.59,1.11-1.32,2.38-2.32,3.75-2.98h0v-.03c1.29-.67,2.68-1.06,4.1-1.18h0c1.73-.21,3.48-.01,5.18.48h.01c1.32.36,2.57.89,3.78,1.6.08.05.16.09.22.12.95.56,1.84,1.21,2.69,1.94.08.05.12.09.18.13h.01v.03c.11.06.2.12.29.16.15.2.28.4.4.6h0c.65.98,1.19,2,1.61,3.07h0c.12.31.21.56.3.86h0c.39,1.17.62,2.41.65,3.63h0c.01.46,0,.88-.03,1.33-.07.7-.18,1.4-.38,2.16h0Z"/>
        <path class="st0" d="M400.82,399.18c-.75.91-1.69,1.25-2.81,1.48-.5.1-1,.2-1.5.3.38,4.22-.52,8.58-3.24,12.88-6.78,10.73-21.14,13.57-31.35,5.88-10.66-8.03-10.56-24.07-.6-32.6,9.33-7.99,20.74-5.51,29.94.68.21.29.41.6.61.9.15-.41.35-.82.66-1.23.43-.56.88-1.1,1.35-1.63.18-.27.36-.53.56-.79.11-.15.26-.27.39-.39-1.24-1.36-2.51-2.7-3.84-3.97-.99-.75-1.99-1.48-3.05-2.15-4.36-2.78-11.57-2.83-16.53-1.95-5.8,1.03-11.28,3.84-15.33,8.14-10.5,11.14-9.64,29.51,2.89,38.84,11.8,8.79,28.56,6.16,37.2-5.69,3.94-5.41,5.53-12.33,4.82-18.93-.06.09-.11.19-.18.26Z"/>
        <path class="st0" d="M405.79,398.87c.6,11.36-3.35,22.68-13.54,29.42-14.22,9.41-34.91,6.07-43.85-8.92-8.89-14.89-4.2-33.66,11.21-41.93,12.9-6.92,27.46-4.29,38.44,3.92.07-.11.12-.22.2-.32,0,0,0,0,0-.01.14-.46.35-.92.68-1.38.13-.15.22-.33.34-.49.47-.85.99-1.67,1.57-2.45.14-.19.31-.33.46-.48-1.51-1.33-3.18-2.48-5.07-3.54-7.94-4.48-17.18-6.49-26.23-5.08-15.39,2.39-29.13,14.54-31.25,30.31-1.92,14.26,5.05,29.6,17.84,36.54,13.05,7.08,30.44,5.05,41.68-4.63,8.79-7.57,13.4-19.93,12.7-31.72-1.61.16-3.42.6-5.18.76Z"/>
        <path class="st0" d="M364.26,362.17c-.49.02-.98.05-1.46.07-.04,0-.08,0-.12.01-.04,0-.09.01-.13.01-.52.02-1.03.06-1.53.08-1.15.07-2.26.14-3.38.23.04.09.07.18.1.27t0,.01c.07.18.14.36.21.54.04.09.07.18.1.27.07.18.14.37.21.55v.03h0c1.56-.61,3.14-1.11,4.72-1.52.91-.23,1.84-.44,2.76-.62-.5.01-1,.03-1.5.05ZM364.26,362.17c-.49.02-.98.05-1.46.07-.04,0-.08,0-.12.01-.04,0-.09.01-.13.01-.52.02-1.03.06-1.53.08-1.15.07-2.26.14-3.38.23.04.09.07.18.1.27t0,.01c.07.18.14.36.21.54.04.09.07.18.1.27.07.18.14.37.21.55v.03h0c1.56-.61,3.14-1.11,4.72-1.52.91-.23,1.84-.44,2.76-.62-.5.01-1,.03-1.5.05ZM364.26,362.17c-.49.02-.98.05-1.46.07-.04,0-.08,0-.12.01-.04,0-.09.01-.13.01-.52.02-1.03.06-1.53.08-1.15.07-2.26.14-3.38.23.04.09.07.18.1.27t0,.01c.07.18.14.36.21.54.04.09.07.18.1.27.07.18.14.37.21.55v.03h0c1.56-.61,3.14-1.11,4.72-1.52.91-.23,1.84-.44,2.76-.62-.5.01-1,.03-1.5.05ZM421.32,397.4h0c-.22-3.58-.76-7.1-1.7-10.55-.01-.07-.04-.13-.06-.21-.44-1.62-.97-3.23-1.6-4.78v-.03c-.02-.07-.05-.15-.09-.21-.07-.15-.14-.27-.19-.42-.57-1.35-1.2-2.68-1.91-3.95-1.98-3.57-4.55-6.72-7.57-9.4-1.17-1.06-2.44-2.08-3.74-3.02h0s-.02,0-.04-.02c-.33-.22-.65-.46-.98-.64-.46-.3-.92-.62-1.4-.9-1.74-1.1-3.57-2.05-5.47-2.9-3.76-.48-7.54-.88-11.37-1.15h0c-.15-.01-.25-.01-.39-.03-.54-.04-1.09-.08-1.64-.11-.27-.02-.54-.03-.82-.05-.28-.02-.55-.03-.83-.05-.36-.02-.73-.04-1.09-.05-.02,0-.07-.01-.09-.01h-.01c-.08,0-.14-.03-.25-.03-1.4-.07-2.78-.12-4.18-.17-4.84-.18-9.72-.23-14.61-.16-.01-.03-.03-.06-.04-.09-.07-.18-.16-.37-.24-.54h0c-.2,0-.41.01-.59.03h-.01c-.07,0-.12,0-.19.01h-.01s-.02,0-.03,0c0,0-.01,0-.02,0-.3.09-.61.19-.91.29-.31.11-.63.22-.96.34,0,0-.01,0-.02,0-.6.22-1.2.46-1.8.7h0c-1.96.8-3.85,1.73-5.69,2.77-.36.21-.73.42-1.09.64-.37.22-.73.44-1.09.67-1.31.83-2.58,1.7-3.81,2.65-1.33,1.03-2.62,2.1-3.86,3.23h0c-2.99,2.79-5.63,5.89-7.9,9.26-.96,1.45-1.88,2.94-2.67,4.46h0c-1.21,2.33-2.23,4.71-3.03,7.19h0c-.54,1.59-.98,3.2-1.31,4.85v.03c-.2.94-.37,1.88-.49,2.83-.47,3.5-.49,7.02-.12,10.48v.03c.16,1.64.44,3.26.79,4.85v.03c.86,4.03,2.27,7.96,4.15,11.64h0s0,.02,0,.02c.68,1.34,1.41,2.67,2.21,3.93h0c2.36,3.77,5.21,7.2,8.47,10.18h.01c1.05.99,2.15,1.91,3.33,2.79h.02c2.31,1.76,4.75,3.26,7.37,4.56,1.07.52,2.1.96,3.21,1.39h0c1.31.51,2.64.96,4,1.34,4.27,1.24,8.71,1.8,13.15,1.79h.01c1.4-.01,2.79-.07,4.19-.21h.01c3.17-.27,6.26-.86,9.34-1.74h.01c1.45-.39,2.88-.85,4.29-1.4h.01c3.15-1.19,6.2-2.69,9.06-4.51h0s0,0,0-.01c1.6-.99,3.1-2.06,4.58-3.24h0s0-.01,0-.01c.62-.5,1.24-1,1.83-1.55,2.26-2.01,4.29-4.22,6.07-6.61,1.08-1.4,2.04-2.87,2.93-4.38h0c1.68-2.83,3.03-5.8,4.11-8.89v-.02c.64-1.81,1.15-3.65,1.54-5.53h0c.25-1.12.48-2.27.65-3.4.33-2.25.54-4.61.59-6.96h0c.06-1.7.01-3.38-.08-5.09ZM417.08,402.74c-.12,2.98-.51,5.92-1.12,8.69h0c-.15.56-.26,1.07-.4,1.58-.34,1.38-.76,2.69-1.24,4.01h0c-.88,2.53-1.98,4.96-3.31,7.25-.86,1.53-1.81,3.02-2.88,4.43h0c-1.97,2.68-4.22,5.11-6.76,7.24h0c-1.01.86-2.04,1.65-3.13,2.38-.47.34-.92.64-1.41.95,0,0,0,0,0,0h0c-.37.21-.7.44-1.06.63-2.16,1.29-4.38,2.37-6.65,3.22h0c-1.41.55-2.84,1.04-4.28,1.41h-.01c-2.69.77-5.44,1.25-8.17,1.46h0c-1.36.11-2.7.16-4.05.13-4-.05-7.93-.63-11.72-1.76-1.36-.38-2.68-.85-3.97-1.39h0c-3.2-1.27-6.26-2.96-9.11-5.03-1.13-.84-2.25-1.74-3.32-2.69,0,0,0,0,0,0h-.01c-2.69-2.43-5.13-5.26-7.21-8.46-.33-.5-.64-1-.94-1.5-.46-.77-.88-1.53-1.3-2.31,0,0,0,0,0,0h0c-1.78-3.47-3.02-7.02-3.78-10.67h0c-.31-1.61-.54-3.17-.68-4.83v-.03c-.33-3.91-.09-7.86.71-11.69v-.02c.34-1.62.78-3.2,1.31-4.78h0c.61-1.84,1.36-3.67,2.26-5.4v-.03c.75-1.52,1.58-3.01,2.55-4.45,1.94-2.94,4.26-5.7,6.95-8.14,1.24-1.18,2.57-2.23,3.98-3.25h0c1.26-.92,2.57-1.78,3.95-2.57,1.96-1.14,3.99-2.08,6.05-2.87h0c1.56-.61,3.14-1.11,4.72-1.52.91-.23,1.84-.44,2.76-.62.01-.01.03-.01.04-.01.29-.03.59-.09.9-.15.5-.08,1-.18,1.51-.24,2.53-.33,5.1-.45,7.67-.37,1.46.06,2.92.16,4.37.34h0c.67.1,1.33.21,1.98.31h0c.46.08.92.17,1.38.27.17.03.33.06.49.09.31.06.63.13.94.19.04.01.07.01.1.03h.01c5.39,1.27,10.98,3.4,15.91,6.47h0c1.4.88,2.73,1.8,4.01,2.83h0s0,.01,0,.01c3.04,2.45,5.66,5.37,7.55,8.71,2.81,5.04,4.18,11.02,4.46,17.07h0c.09,1.7.07,3.38-.04,5.06h0ZM364.26,362.17c-.49.02-.98.05-1.46.07-.04,0-.08,0-.12.01-.04,0-.09.01-.13.01-.52.02-1.03.06-1.53.08-1.15.07-2.26.14-3.38.23.04.09.07.18.1.27t0,.01c.07.18.14.36.21.54.04.09.07.18.1.27.07.18.14.37.21.55v.03h0c1.56-.61,3.14-1.11,4.72-1.52.91-.23,1.84-.44,2.76-.62-.5.01-1,.03-1.5.05ZM364.26,362.17c-.49.02-.98.05-1.46.07-.04,0-.08,0-.12.01-.04,0-.09.01-.13.01-.52.02-1.03.06-1.53.08-1.15.07-2.26.14-3.38.23.04.09.07.18.1.27t0,.01c.07.18.14.36.21.54.04.09.07.18.1.27.07.18.14.37.21.55v.03h0c1.56-.61,3.14-1.11,4.72-1.52.91-.23,1.84-.44,2.76-.62-.5.01-1,.03-1.5.05ZM364.26,362.17c-.49.02-.98.05-1.46.07-.04,0-.08,0-.12.01-.04,0-.09.01-.13.01-.52.02-1.03.06-1.53.08-1.15.07-2.26.14-3.38.23.04.09.07.18.1.27t0,.01c.07.18.14.36.21.54.04.09.07.18.1.27.07.18.14.37.21.55v.03h0c1.56-.61,3.14-1.11,4.72-1.52.91-.23,1.84-.44,2.76-.62-.5.01-1,.03-1.5.05ZM364.26,362.17c-.49.02-.98.05-1.46.07-.04,0-.08,0-.12.01-.04,0-.09.01-.13.01-.52.02-1.03.06-1.53.08-1.15.07-2.26.14-3.38.23h-.01c.04.09.08.18.12.27t0,.01c.07.18.14.36.21.54.04.09.07.18.1.27.07.18.14.37.21.55v.03h0c1.56-.61,3.14-1.11,4.72-1.52.91-.23,1.84-.44,2.76-.62-.5.01-1,.03-1.5.05Z"/>
        <path class="st0" d="M433.54,413.47c-.17,1.24-.38,2.49-.63,3.69-.35,1.78-.8,3.54-1.34,5.25h0c-1.54,5.04-3.77,9.79-6.59,14.17h0c-.92,1.46-1.93,2.85-2.97,4.23-3.28,4.24-7.15,8.06-11.43,11.35h-.01c-1.45,1.14-2.92,2.18-4.45,3.17h-.01c-3.22,2.06-6.66,3.87-10.23,5.35-1.09.45-2.19.86-3.28,1.25h-.01c-1.47.5-2.92.94-4.38,1.33-4.15,1.1-8.35,1.72-12.55,1.88h-.01c-1.65.06-3.29.06-4.93,0h-.01c-5.7-.25-11.32-1.33-16.74-3.23-1.33-.46-2.62-.98-3.92-1.54h-.01c-4.93-2.14-9.62-4.95-13.95-8.45-.11-.09-.24-.18-.35-.28-1.21-.98-2.37-2.03-3.5-3.08-4.49-4.27-8.33-9.16-11.36-14.45h0c-.82-1.46-1.61-2.92-2.32-4.44h0c-2.12-4.54-3.69-9.29-4.63-14.19h0c-.32-1.69-.56-3.37-.73-5.07h0c-.5-4.9-.36-9.9.45-14.89.11-.68.22-1.35.38-2.03h0c.32-1.7.73-3.38,1.2-5.02h0c1.16-4.13,2.75-8.06,4.69-11.81.81-1.56,1.68-3.07,2.6-4.55,1.03-1.65,2.14-3.24,3.34-4.79.73-.98,1.51-1.94,2.32-2.88.57-.66,1.14-1.3,1.73-1.94h.01c.06-.01.1-.03.14-.04.21-.1,1.54-.46,3.8-.94h.01c1.41-.3,3.2-.65,5.3-1.01-1.14.92-2.25,1.87-3.31,2.88-.06.04-.11.09-.17.14-.73.7-1.44,1.41-2.14,2.13-2.62,2.74-5,5.73-7.05,8.93-.95,1.48-1.84,2.98-2.65,4.53-1.68,3.2-3.07,6.52-4.13,9.97h0c-.53,1.64-.95,3.29-1.3,4.95-.77,3.54-1.17,7.12-1.21,10.75-.01,1.66.06,3.3.22,4.93.14,1.69.36,3.35.68,5.01.89,4.64,2.39,9.12,4.44,13.37h0c.7,1.46,1.48,2.86,2.3,4.26h0c2.82,4.79,6.34,9.16,10.39,12.98h.01c1.12,1.08,2.25,2.05,3.43,3.01,2.04,1.66,4.2,3.2,6.45,4.58,2.11,1.28,4.29,2.44,6.49,3.39h.01c1.3.58,2.6,1.1,3.92,1.55,5.05,1.78,10.29,2.77,15.57,2.98h.01c1.59.08,3.14.06,4.72-.01,3.92-.17,7.82-.77,11.66-1.79h.01c1.47-.39,2.92-.84,4.36-1.35h.01c3.21-1.14,6.35-2.58,9.38-4.32.95-.54,1.87-1.11,2.79-1.7,1.56-1.02,3.06-2.09,4.51-3.24h.01c3.84-3.07,7.3-6.58,10.26-10.45,0,0,0-.01.01-.01,1.05-1.39,2.02-2.83,2.95-4.3,2.43-3.91,4.38-8.1,5.75-12.52h0c.56-1.77,1.02-3.55,1.37-5.35h0v-.03c.61-3.1.96-6.27.98-9.5.01-1.48-.01-2.92-.14-4.37h0c-.11-1.73-.31-3.44-.57-5.14-.66-4.18-1.74-8.27-3.25-12.21-.67-1.78-1.45-3.52-2.29-5.24-2.12-4.34-4.73-8.41-7.82-12.14-1.16-1.45-2.4-2.83-3.7-4.15.27.06.5.12.77.17.28.06.57.13.88.21,1.7.39,3.41.79,5.11,1.23,1.2,1.37,2.35,2.8,3.43,4.27,1.97,2.76,3.74,5.68,5.23,8.73.91,1.77,1.7,3.61,2.4,5.47,1.63,4.28,2.79,8.75,3.46,13.3h0c.24,1.73.42,3.43.54,5.16h0c.24,3.95.13,7.92-.4,11.88Z"/>
        <path class="st0" d="M445.63,421.12h0c-.03.12-.04.21-.07.31-.38,1.6-.8,3.16-1.26,4.72-.01.06-.04.14-.07.21-.42,1.42-.89,2.81-1.41,4.22-2,5.39-4.61,10.43-7.71,15.01-.07.09-.13.19-.2.28-.87,1.29-1.79,2.55-2.75,3.78h0c-.06.08-.1.14-.15.21-4.33,5.5-9.38,10.3-14.98,14.3-.07.05-.15.1-.22.15-1.34.98-2.72,1.9-4.12,2.76-.06.03-.1.06-.15.09-5.57,3.43-11.57,6.13-17.84,8.05-.06.01-.13.04-.18.05-1.41.45-2.85.84-4.3,1.17-.04.01-.08.03-.13.03-5.01,1.21-10.11,1.91-15.26,2.06h-.13c-1.7.05-3.36.05-5.05-.03h-.03c-6.95-.26-13.95-1.55-20.69-3.9-.01,0-.01-.01-.03-.01h-.01c-1.31-.45-2.61-.95-3.89-1.51-.03-.01-.07-.03-.1-.04-3.17-1.33-6.25-2.89-9.24-4.71-3.32-2.03-6.42-4.26-9.3-6.68-.01-.01-.04-.03-.06-.04-1.19-.97-2.29-1.99-3.39-3.02-.04-.04-.08-.08-.13-.12h-.01c-6.02-5.74-10.92-12.36-14.63-19.47,0-.01-.01-.01-.01-.03h0c-.85-1.59-1.61-3.21-2.32-4.84-.01-.04-.03-.06-.04-.1-2.3-5.32-3.96-10.85-5.01-16.5,0-.06-.01-.12-.03-.18h0c-.31-1.66-.54-3.32-.73-4.99-.01-.09-.01-.17-.03-.26h0c-.74-6.75-.59-13.61.5-20.37.01-.09.03-.17.04-.26h0c.27-1.68.6-3.3.98-4.93.01-.1.04-.22.07-.32,1.02-4.28,2.42-8.5,4.22-12.62h.01c.64-1.54,1.37-3.04,2.15-4.54,0-.03.01-.04.03-.06.11-.22.22-.44.35-.65,2.11-.7,4.12-1.32,6.03-1.87.34-.1.66-.19.98-.27-.11.18-.22.37-.35.55-.03.04-.04.08-.07.12-.89,1.41-1.73,2.85-2.51,4.34-.1.14-.17.3-.25.45-.01.04-.04.06-.06.1-2.53,4.81-4.49,9.87-5.89,15.11-.03.1-.06.22-.08.32-.4,1.6-.77,3.24-1.07,4.86-.01.09-.03.17-.04.26-1.17,6.31-1.51,12.77-.94,19.19.01.09.01.18.03.27.14,1.66.35,3.33.63,4.97h0c.01.08.01.14.03.21.45,2.76,1.09,5.48,1.88,8.18.78,2.65,1.73,5.23,2.81,7.69.01.04.03.06.06.1.7,1.61,1.47,3.2,2.32,4.72.01.03.03.04.04.06,3.6,6.71,8.33,12.61,13.83,17.61.04.04.08.08.13.12,1.14,1.05,2.33,2.04,3.53,2.98.03.01.04.04.07.05,5.25,4.14,11.07,7.55,17.25,10.06.03.01.07.03.1.04,1.28.54,2.6,1.02,3.91,1.48.01,0,.03.01.04.01,6.18,2.13,12.65,3.42,19.19,3.82h.01c1.7.12,3.45.15,5.17.12h.08c4.8-.08,9.62-.65,14.35-1.74.04-.01.07-.01.11-.03h.01c1.44-.32,2.85-.7,4.29-1.16.06-.01.13-.03.18-.05,3.56-1.08,7.06-2.49,10.48-4.22,2.04-1.06,4.02-2.17,5.92-3.39.06-.03.1-.05.15-.09,1.45-.9,2.86-1.87,4.19-2.9.07-.05.14-.1.21-.15,5.26-3.94,9.77-8.49,13.54-13.51.06-.06.1-.14.15-.21.96-1.28,1.86-2.59,2.72-3.94.07-.09.13-.18.18-.27,3.45-5.43,6.11-11.32,7.93-17.43.03-.06.06-.14.07-.21.46-1.59.88-3.19,1.24-4.83.03-.1.04-.21.07-.31v-.03c1.31-6.08,1.84-12.39,1.51-18.68v-.19c-.08-1.68-.22-3.37-.45-5.03,0-.09-.01-.17-.03-.26h0c-.64-5.26-1.87-10.46-3.7-15.52-.01-.05-.04-.12-.06-.17-.66-1.86-1.4-3.68-2.22-5.47-.04-.09-.08-.18-.13-.27h0c-.28-.59-.54-1.19-.84-1.78-.71-1.47-1.51-2.93-2.35-4.36.68.22,1.34.45,2,.68,1.42.5,2.83,1.03,4.23,1.57.4.77.8,1.56,1.17,2.35.06.1.1.22.14.32h.01c.28.61.54,1.2.81,1.82.47,1.11.92,2.22,1.34,3.33.01.04.03.09.04.13,2.08,5.47,3.48,11.15,4.23,16.91h0c.01.09.03.18.03.26.24,1.69.39,3.34.5,5.03,0,.06.01.12.01.18.39,6.92-.14,13.91-1.63,20.72Z"/>
        <path class="st0" d="M451.65,450.85c-24.29,41.65-79.95,56.19-121.58,32.5-24.64-14-40.27-38.36-44.48-64.71h0c-.17-1.02-.29-2.03-.43-3.03,0,0-.01,0,0-.01-1.4-11.07-.78-22.44,2.05-33.49.47-1.9,1.03-3.79,1.65-5.66,1.8-.92,3.57-1.75,5.3-2.54-.04.1-.07.19-.11.3-.64,1.75-1.23,3.52-1.74,5.3-.6,1.99-1.13,4-1.58,6.03v.03c-.36,1.57-.67,3.15-.95,4.75h0c-1.31,7.78-1.59,15.73-.8,23.57h0c.15,1.7.38,3.37.66,5.04h0c1.03,6.59,2.85,13.06,5.49,19.28.1.25.21.5.32.75.43,1.02.91,2.04,1.38,3.03h0c4.82,9.95,11.46,18.55,19.39,25.64.01,0,.01.01.01.01t.01.01c.52.45,1.02.89,1.54,1.32,0,0,.01.01.03.01h.01c6.95,5.94,14.81,10.68,23.21,14.14,1.3.53,2.61,1.05,3.94,1.52,7.9,2.81,16.17,4.5,24.57,4.97,1.23.05,2.46.1,3.66.12h.01c6.09.08,12.2-.52,18.22-1.78h.01c1.49-.31,2.96-.68,4.45-1.07,2.72-.72,5.42-1.61,8.07-2.62,4.91-1.88,9.55-4.19,13.86-6.84,0,0,.01,0,.01-.01,1.37-.81,2.65-1.68,3.94-2.58h.01c7.06-4.92,13.19-10.76,18.34-17.37.95-1.23,1.87-2.48,2.75-3.77h0c5.11-7.37,9.05-15.44,11.68-24h0c.49-1.61.94-3.19,1.33-4.81v-.03c2.07-8.31,2.92-16.97,2.46-25.68h0c-.08-1.73-.22-3.41-.39-5.1h0c-.42-3.72-1.09-7.44-2-11.13-.22-.92-1.86-5.7-2.11-6.62-.17-.59-.35-1.19-.52-1.78,1.05.57,2.11,1.15,3.15,1.74,1.09.62,2.15,1.23,3.22,1.88.13.48,1.65,4.84,1.74,5.3.27,1.05.49,2.09.7,3.12,4.37,21.77.74,44.93-10.53,64.27Z"/>
        <path class="st0" d="M374.1,402.41c-4.12,4.42-5.55,11.02-7.74,16.58-2.82,7.14-5.64,14.28-8.46,21.42-5.64,14.28-11.28,28.56-16.92,42.84-1.01,2.56,3.12,3.67,4.11,1.14l16.39-41.59c2.65-6.72,5.3-13.44,7.95-20.16,2.38-6.04,6.49-12.92,6.49-19.46,0-.9-1.19-1.44-1.83-.76Z"/>
        <path class="st0" d="M379.19,400.49c-.16-1.26-1.96-1.73-2.36-.32-1.85,6.62-1.72,13.86-2.26,20.68-.6,7.69-1.21,15.38-1.81,23.08-1.19,15.15-3.79,30.98-3.2,46.15.07,1.92,3.11,2.54,3.5.47,2.68-14.22,2.51-29.47,3.52-43.91.51-7.24,1.01-14.48,1.52-21.72.55-7.93,2.06-16.52,1.09-24.43Z"/>
        <path class="st0" d="M396.06,488.27c-1.49-14.33-3.6-28.57-6.46-42.69-2.94-14.55-6-29.92-11.62-43.69-.82-2.01-3.78-1.31-3.32.92,2.88,13.88,7.26,27.44,10.08,41.36,2.96,14.59,5.18,29.3,6.74,44.1.31,2.9,4.88,2.93,4.57,0Z"/>
        <path class="st0" d="M421.88,474.98c-11.83-25.88-26.78-51.51-44.42-73.86-1.4-1.78-4.37.54-3.13,2.42,15.84,24.05,30.51,48.08,43.49,73.82,1.38,2.73,5.3.34,4.06-2.38Z"/>
        <path class="st0" d="M444.41,455.18c-21.32-21.38-45.03-41.93-70.04-58.89-1.61-1.09-3.65,1.48-2.1,2.73,23.75,19.14,46.79,38.36,68.91,59.39,2.13,2.03,5.32-1.15,3.23-3.24Z"/>
        <path class="st0" d="M457.12,425.24c-27.53-8.89-55.09-19.34-83.15-26.36-2.41-.6-3.2,2.75-1,3.63,26.86,10.81,55.31,18.56,82.83,27.55,3.06,1,4.38-3.84,1.33-4.82Z"/>
        <path class="st0" d="M459.94,393.86c-14.97,1.52-29.93,3.04-44.96,3.95-13.95.85-29.07-.35-42.75,2.47-1.34.28-1.36,2.46,0,2.72,13.58,2.64,29.02.61,42.75-.16,15.01-.83,30.04-1.98,44.96-3.88,3.34.07,3.22-5.44,0-5.11Z"/>
        <path class="st0" d="M389.19,393.12c-4.35,1.88-8.51,4-12.11,6.58-1.13.81-.41,2.33.91,2.15,4.31-.59,8.69-1.83,13.05-3.38-1.72-1.03-2.63-3.41-1.85-5.35Z"/>
        <path class="st0" d="M453.51,423.5c-.01.08-.04.17-.06.25-.03.09-.04.19-.07.28-.34,1.43-.74,2.86-1.2,4.4-.01.06-.04.14-.07.21-.03.08-.04.14-.07.22-1.27,4.22-2.9,8.36-4.91,12.35-1.69,3.42-3.63,6.7-5.93,10l-.07.09h0s-.04.08-.07.1c-.07.09-.13.18-.18.26-.91,1.25-1.74,2.37-2.58,3.39-.04.05-.08.12-.14.17-.06.06-.11.13-.15.19-4.91,6.09-10.72,11.44-17.34,15.96-.06.04-.1.06-.15.1-.07.05-.14.09-.2.13-1.41.95-2.65,1.74-3.84,2.44l-.13.08-.07.04s-.04.03-.07.04c-6.42,3.83-13.3,6.77-20.46,8.75-.03.01-.07.01-.1.03-.06.01-.1.03-.15.04-1.37.39-2.81.75-4.27,1.06-.03.01-.07.01-.1.03s-.07.01-.1.03c-5.63,1.24-11.34,1.87-17.04,1.91h-1.12c-1.17,0-2.28-.03-3.38-.09h-.07c-7.97-.37-15.72-1.96-23.09-4.67-.01-.01-.04-.01-.06-.03-.01,0-.03-.01-.04-.01l-.08-.03c-1.45-.54-2.64-1.01-3.74-1.52-.03-.01-.07-.03-.1-.04-.03,0-.04-.01-.07-.03-3.06-1.32-6.11-2.9-9.1-4.74-4.09-2.48-7.98-5.3-11.63-8.36-.01-.03-.04-.04-.06-.05-.03-.01-.07-.04-.1-.06-.91-.77-1.87-1.6-3.07-2.71-.04-.04-.08-.08-.13-.12-.04-.04-.07-.06-.11-.1-7.12-6.64-12.93-14.14-17.25-22.33,0-.01-.01-.03-.01-.04v-.3h-.15c-.77-1.45-1.41-2.79-2-4.1-.03-.06-.06-.12-.08-.18-.03-.05-.04-.12-.07-.17-1.88-4.26-3.36-8.64-4.41-13.07-.36-1.48-.7-3.07-.99-4.74,0-.06-.01-.13-.03-.19-.01-.06-.03-.13-.04-.19-.29-1.81-.49-3.33-.63-4.74-.01-.09-.01-.17-.03-.25-.01-.09-.01-.17-.03-.26-.78-7.38-.57-14.84.61-22.18.01-.09.03-.18.04-.27l.04-.27c.28-1.65.57-3.03.84-4.3.03-.1.04-.21.07-.31.01-.12.04-.22.07-.34.57-2.57,1.3-5.08,2.12-7.56.11-.35.22-.68.34-1.02.52-1.52,1.07-3.02,1.68-4.5.4-.17.8-.32,1.19-.49h.01c1.33-.53,2.64-1.05,3.92-1.52-.67,1.45-1.3,2.9-1.88,4.39h-.01c-.13.34-.25.66-.38.99-1.21,3.2-2.23,6.48-3.03,9.82-.03.12-.06.23-.08.36-.03.1-.06.21-.07.31-.38,1.45-.7,3.01-.96,4.66-.01.09-.03.21-.04.3-.01.09-.03.17-.04.26-1.19,6.99-1.42,14.09-.77,21.11.01.1.01.21.03.31.01.09.01.17.03.26.15,1.55.38,3.11.64,4.75.01.08.03.14.04.22.01.06.03.13.03.19.67,3.95,1.63,7.83,2.88,11.55.57,1.78,1.26,3.59,2.05,5.51l.03.08s.04.09.06.13c.03.05.04.1.07.15.71,1.64,1.42,3.15,2.16,4.62l.04.09s.03.04.03.06c4.06,7.88,9.44,14.9,15.98,20.9l.15.14s.08.08.13.1c1.01.93,2.09,1.88,3.25,2.8l.07.05.04.04h.01s.01.01.03.03c6,4.88,12.68,8.83,19.81,11.77.04.03.1.04.14.05s.07.03.11.04c1.33.57,2.61,1.05,3.82,1.48.01.01.04.01.06.03.01.01.04.01.06.03,7.04,2.45,14.34,3.91,21.75,4.34h.07c1.34.09,2.83.14,4.38.14h.6c5.35-.03,10.75-.62,16.07-1.79.03-.01.07-.01.1-.03.06,0,.1-.01.15-.03,1.4-.3,2.78-.63,4.2-1.05.04-.01.1-.03.14-.04.08-.03.17-.05.25-.08,2.02-.58,3.96-1.21,5.79-1.91,4.62-1.74,9.06-3.91,13.23-6.48.04-.04.1-.06.14-.09.04-.01.07-.04.11-.06l.1-.05c1.42-.85,2.76-1.77,3.84-2.53.07-.05.13-.09.18-.13.07-.04.13-.09.18-.13l.13-.08c5.97-4.26,11.27-9.37,15.8-15.19.06-.06.11-.12.15-.18.03-.03.04-.06.07-.09h.2v-.26c.82-1.06,1.63-2.18,2.44-3.37.07-.08.13-.17.18-.26.08-.12.15-.23.24-.35,4.27-6.31,7.59-13.2,9.88-20.46.03-.08.04-.14.07-.22.04-.08.06-.15.08-.23.45-1.42.87-2.9,1.23-4.4.03-.09.04-.18.07-.27.03-.12.06-.25.08-.36,1.77-7.25,2.53-14.71,2.21-22.19v-.36c-.07-1.64-.2-3.25-.38-4.84-.01-.08-.01-.17-.03-.25,0-.09-.01-.18-.03-.27-.66-6.13-2.08-12.17-4.19-17.96-.06-.19-.14-.4-.21-.62-.42.22-.84.44-1.28.66h0c-.18.1-.38.19-.56.31h-.01c-.66.31-1.31.63-1.98.93-.24.12-.49.23-.74.35-.08.05-.18.09-.28.14-1.05.46-2.11.92-3.18,1.38-.24.09-.46.19-.7.3-.08.03-.18.06-.27.1-2.47,1.02-4.98,1.97-7.51,2.89-.21.08-.43.17-.64.23-1.14.44-2.28.84-3.42,1.24-.2.08-.4.14-.6.22-1.94.7-3.85,1.39-5.75,2.08-.17.06-.35.13-.52.19-1.13.41-2.25.83-3.36,1.25-.22-1.66-.7-3.41-1.52-4.9,1.06-.44,2.12-.9,3.2-1.37.18-.09.36-.17.54-.25,1.69-.72,3.38-1.48,5.1-2.25.21-.09.4-.18.61-.27,1.09-.48,2.19-.95,3.29-1.42.22-.1.43-.19.66-.28,2.5-1.07,5.03-2.13,7.58-3.07.1-.04.18-.08.28-.1.25-.1.5-.21.74-.3.29-.1.6-.22.89-.32.75-.27,1.52-.54,2.29-.81.1-.04.2-.06.29-.09.27-.1.54-.18.81-.27.21-.06.42-.13.63-.21.27-.08.54-.17.81-.26.43-.13.89-.26,1.33-.4.04.1.08.21.13.31.08-.08.17-.15.28-.21.11-.05.22-.09.34-.14.28-.09.54-.18.84-.25.07-.01.13,0,.2,0,.07-.27.22-.5.45-.66.56-.48,1.51-.44,1.95.06.08.06.14.15.2.25.07.05.13.12.18.18.08.06.17.15.24.26.22.13.42.37.49.7,0,.01,0,.03.01.04.15.09.28.22.38.37.13.13.22.27.29.44.24.55.49,1.1.68,1.68.04.12.03.23.03.35.04.01.07.03.11.04.1.27.2.54.28.8.13.36.25.72.38,1.08.29.84.57,1.69.84,2.55,1.45,4.74,2.51,9.66,3.11,14.64.01.09.03.18.03.27.01.08.01.17.03.25.18,1.52.31,3.1.4,4.75,0,.08.01.14.01.22,0,.06.01.12.01.18.46,8.09-.25,16.18-2.11,24.01Z"/>
        <path class="st0" d="M375.77,398.75c-5.44,4.92-9.77,11.28-14.47,16.91-4.76,5.71-9.6,11.36-14.49,16.95-9.8,11.2-20.3,21.76-30.16,32.88-1.74,1.97.97,4.74,2.9,2.91,11.05-10.5,21.12-22.28,31.11-33.78,9.24-10.64,20.55-21.74,27.34-34.15.78-1.44-1.03-2.8-2.23-1.72Z"/>
        <path class="st0" d="M375.89,403.61c-6.45,1.17-12.77,5.96-18.6,8.91-6.79,3.43-13.67,6.69-20.63,9.74-7.17,3.15-14.44,6.08-21.78,8.81-6.84,2.54-14.18,4.37-20.72,7.59-2.11,1.04-.51,3.86,1.49,3.53,14.26-2.36,28.9-9.78,42.07-15.62,6.95-3.08,13.81-6.36,20.58-9.82,6.08-3.11,14.15-6.05,18.68-11.27.76-.88.02-2.09-1.1-1.89Z"/>
        <path class="st0" d="M374.92,398.2c-14.31,1.23-28.7,6.28-42.83,8.99-15.07,2.88-30.22,4.95-45.42,7,0,.01,0,.02.01.04-2.59.81-2.32,5.27.66,4.96,15.01-1.56,29.96-4.11,44.75-7.05,14.22-2.83,30.38-4.98,43.56-11.21,1.29-.61.68-2.85-.74-2.72Z"/>
        <path class="st0" d="M375.8,398.27c-5.61-2.7-12.46-2.88-18.58-3.77-7.52-1.09-15.04-2.16-22.56-3.24-12.37-1.77-24.73-3.52-37.1-5.26-1.85.35-3.94-.2-5.79-.36-1.03-.09-2.06-.19-3.08-.3-2.26,1.23-1.13,4.69,1.45,5.03,14.62,1.94,29.25,3.86,43.88,5.75,7.09.92,14.18,1.84,21.27,2.75,6.53.84,13.73,2.67,20.25,1.51.95-.17,1.14-1.69.28-2.11Z"/>
        <path class="st0" d="M378.74,402.75h0c0,.23-.06.44-.15.65h0c-.1.18-.2.34-.32.48h0s-.01.01-.01.01c-.2.21-.42.35-.7.43h-.01c-.08.04-.18.06-.29.06-.18.03-.34.01-.52-.05-.25-.06-.52-.13-.75-.21h-.01s-.03-.01-.04-.03h-.01s-.01,0-.03-.01h-.01c-.31-.06-.61-.15-.94-.27-.01,0-.03,0-.04-.01h-.01c-.08-.01-.15-.04-.22-.06-.07-.01-.14-.04-.21-.05h-.03c-.36-.12-.73-.22-1.1-.35-.32-.1-.61-.19-.95-.3-.01,0-.01-.01-.03-.01h-.01c-.06-.01-.13-.04-.2-.05-.06-.03-.13-.04-.2-.06-.08-.03-.13-.04-.2-.06-.1-.03-.18-.08-.28-.1h-.01c-.71-.23-1.45-.49-2.16-.74-1.42-.49-2.83-1.02-4.23-1.59-.13-.04-.24-.08-.34-.13h-.03c-.36-.14-.68-.28-1.03-.43h-.03c-.18-.08-.35-.14-.54-.22-1.49-.62-2.97-1.24-4.44-1.9-1.16-.52-2.32-1.05-3.48-1.59h-.01c-1.58-.76-3.14-1.51-4.69-2.28-.32-.15-.63-.31-.94-.48h-.01c-1.07-.53-2.11-1.06-3.17-1.61h-.01c-1.69-.89-3.36-1.79-5.04-2.68-1.47-.79-2.92-1.57-4.34-2.35-.73-.4-1.45-.81-2.16-1.21-1.49-.83-2.97-1.65-4.44-2.5-2.18-1.25-4.34-2.55-6.52-3.88-1.31-.8-2.62-1.61-3.94-2.46-.99-.59-2-1.26-2.97-1.9-1.24-.81-2.57-1.63-3.88-2.43-.31-.19-.61-.39-.92-.59-.15-.09-.31-.19-.46-.3-.91-.57-1.83-1.16-2.72-1.75-.32-.22-.64-.44-.96-.66-.15-.1-.31-.22-.46-.32-.03-.03-.07-.04-.1-.06.32-.12.63-.22.94-.32,2.11-.7,4.12-1.32,6.03-1.87.2.14.38.27.56.4.03.03.06.04.08.06.27.19.54.39.81.58.84.62,1.68,1.23,2.51,1.82,1.1.77,2.19,1.54,3.29,2.25.29.18.57.37.85.54,1.31.85,2.64,1.68,3.99,2.49,2.16,1.34,4.33,2.68,6.53,3.94,1.44.88,2.86,1.72,4.33,2.53h.01c.73.43,1.45.84,2.19,1.25,1.38.76,2.78,1.51,4.17,2.24h.01c1.69.89,3.38,1.77,5.08,2.62h.01c1.3.65,2.61,1.28,3.91,1.91h.01c1.59.77,3.18,1.52,4.77,2.3,0,0,.01,0,.01.01,1.1.52,2.19,1.03,3.31,1.56,1.52.71,3.02,1.43,4.55,2.14.38.18.77.37,1.16.55h.01s.01,0,.01.01c.2.08.35.17.53.28.29.13.56.26.84.39,1.12.54,2.23,1.08,3.36,1.64h.01c.13.08.28.15.42.22.18.09.35.17.53.26.14.06.31.15.46.23.08.04.18.09.28.14h.01c.57.3,1.14.58,1.7.86.04.03.08.05.13.08h.01c.31.15.63.31.94.48.14.06.25.13.35.18h.01s.03.01.03.03h.01c.11.05.21.1.31.15h.01c.06.03.1.06.15.1h.03s.01.01.01.03c.21.1.39.21.61.31.01.01.04.03.06.04.01,0,.01.01.03.01s.04.01.06.03h.01s.01.03.01.03h.01s.03.01.06.03c.13.08.25.14.38.21.21.1.36.23.47.39.24.27.34.62.31.95Z"/>
        <path class="st0" d="M377.41,401.06h0s0,.01-.01.03c0,.01.01.01.01.01,0,0-.01,0-.01.01-.06.22-.17.4-.32.57-.18.25-.45.44-.74.54-.03.01-.04.03-.07.03h-.03c-.13.06-.22.1-.38.1-.1.03-.2.03-.28.01-.01,0-.01.01-.01.01,0,0,0-.01-.01-.01h-.01c-.28-.01-.54-.09-.82-.26h-.01s-.03-.04-.06-.05c-.06-.04-.14-.09-.21-.14-.06-.05-.13-.09-.18-.15h-.01c-.06-.05-.07-.08-.13-.13-.03-.01-.06-.04-.07-.05-.24-.17-.43-.34-.64-.53-.15-.12-.29-.25-.43-.36h-.01c-.18-.17-.34-.3-.52-.44h-.01c-.18-.17-.35-.31-.53-.46h-.01c-.43-.37-.84-.72-1.24-1.07t-.01-.01h-.01c-.92-.79-1.79-1.55-2.67-2.34-.22-.18-.42-.35-.61-.55-.03-.01-.04-.03-.06-.05-.47-.41-.94-.81-1.38-1.23-1.23-1.11-2.47-2.26-3.67-3.39-.85-.81-1.72-1.61-2.55-2.41h-.01c-1.27-1.25-2.54-2.49-3.81-3.75-.92-.93-1.84-1.87-2.78-2.81-1.33-1.37-2.64-2.72-3.95-4.1h-.01c-1.63-1.7-3.24-3.41-4.82-5.11-1.14-1.21-2.25-2.43-3.38-3.64-1.3-1.41-2.58-2.81-3.87-4.22-.46-.52-.92-1.02-1.38-1.52-.03-.04-.07-.06-.1-.1-.59-.63-1.16-1.26-1.73-1.91,1.41-.3,3.2-.65,5.3-1.01.06-.05.13-.1.18-.15l.1.1,2.19,2.31c.43.45.87.9,1.3,1.35h.01c.6.65,1.23,1.28,1.84,1.91,1.16,1.21,2.33,2.41,3.5,3.63,1.62,1.66,3.27,3.3,4.89,4.95,1.37,1.39,2.76,2.79,4.13,4.19.85.86,1.7,1.72,2.55,2.59,1.27,1.29,2.55,2.61,3.84,3.91h.01c.78.85,1.58,1.64,2.39,2.46,1.19,1.24,2.36,2.48,3.56,3.73h0s.01.03.01.03c.49.5.96,1.01,1.44,1.51.95.99,1.87,1.99,2.82,3.01h.01c.27.3.53.59.8.88.47.52.95,1.03,1.42,1.55.28.3.54.59.82.89.01.03.04.04.06.06h0c.03.06.07.1.1.15h.01s.01.03.01.04c.01.01.03.03.04.05h0c.06.08.1.13.11.19.2.4.21.8.11,1.16Z"/>
        <path class="st0" d="M377.35,401v.05h-.01v.03c-.06.22-.18.4-.32.57-.15.23-.39.41-.67.54h-.01s-.06.04-.1.04c0,0-.01,0-.01.01-.11.06-.22.1-.36.12-.1.04-.17.05-.27.05h-.01s-.03.01-.03,0c-.32.03-.64-.03-.91-.19h-.01s-.06-.04-.1-.06h-.01c-.13-.09-.22-.18-.31-.3h-.01c-.03-.08-.08-.14-.11-.21-.01-.03-.03-.04-.04-.06-.01-.01-.01-.04-.03-.05-.13-.25-.25-.5-.35-.76-.03-.04-.04-.08-.06-.14-.1-.18-.18-.35-.27-.54h0c-.06-.1-.1-.18-.14-.28v-.03c-.13-.28-.27-.55-.39-.85-.04-.06-.06-.14-.08-.21-.04-.09-.08-.18-.13-.27-.17-.34-.32-.67-.45-1.02h0c-.07-.14-.13-.26-.18-.39,0,0,0-.01-.01-.01-.03-.08-.06-.14-.08-.21-.5-1.15-.99-2.28-1.48-3.42-.25-.62-.49-1.23-.75-1.83,0,0-.01,0-.01-.01h0c-.66-1.57-1.28-3.14-1.91-4.7-.4-1.02-.81-2.04-1.23-3.04h0c-.67-1.68-1.33-3.34-2.01-5.01-.01-.03-.01-.04-.03-.06-.39-.98-.81-1.96-1.21-2.97-.8-1.82-1.61-3.65-2.4-5.5v-.03c-.85-1.99-1.74-3.97-2.55-6h0c-.22-.57-.43-1.12-.64-1.68h-.01c-.1-.25-.18-.49-.28-.74-.32-.84-.63-1.66-.91-2.49-.08-.22-.15-.43-.21-.65.67-.04,1.37-.05,2.04-.06.64-.23,1.27-.45,1.91-.65h.01c.25-.03.52-.05.8-.06h0c.1.22.2.44.28.65.47,1.03.91,2.09,1.33,3.16.08.17.14.34.21.5s.13.32.2.49c.78,1.96,1.51,3.96,2.23,5.95h0c.73,1.94,1.42,3.87,2.18,5.75h0c.08.25.17.48.27.72.29.68.56,1.39.84,2.08h0c.71,1.75,1.41,3.48,2.11,5.24h0c.39.98.78,1.95,1.16,2.9.66,1.68,1.33,3.32,1.95,4.97h0c.25.62.47,1.24.7,1.83h0c.66,1.7,1.27,3.38,1.87,5.08.06.17.13.32.17.49h0c.08.21.15.43.22.62.13.36.25.72.36,1.08h0c.03.06.04.12.06.17h.01v.05s.01.01.01.03h0c.04.1.08.18.11.27.01.05.04.1.06.15.11.31.11.61.04.88Z"/>
        <path class="st0" d="M385.2,359.23c.03,1.06.01,2.13-.03,3.2v.16c-.05,1.89-.15,3.76-.26,5.65h0c-.14,2.15-.28,4.27-.42,6.35v.12c-.04.75-.09,1.49-.14,2.24h0c-.14,2.33-.28,4.64-.47,6.96h0c-.08.88-.16,1.75-.24,2.63-.18,1.82-.37,3.67-.62,5.5-.01.18-.04.36-.07.53-.14,1.06-.28,2.12-.47,3.17-.03.22-.07.47-.11.69h0c-.05.4-.12.79-.19,1.18-.26,1.53-2.16,1.66-3.11.79h-.01c-.15-.13-.26-.28-.35-.47-.12-.23-.19-.5-.18-.81.08-1.44.16-2.86.27-4.28.04-.66.08-1.32.14-1.98.12-1.89.27-3.78.42-5.67.07-.87.14-1.71.2-2.56.15-2.15.3-4.28.43-6.43h0c.05-.8.09-1.58.12-2.37.01-.18.01-.36.03-.56.08-1.91.1-3.87.1-5.82h0c.01-1.77.01-3.54.03-5.32v-.43c.01-.93.03-1.85.07-2.77.03,0,.07.01.09.01,1.46.06,2.93.17,4.38.27.14.01.26.01.39.03Z"/>
        <path class="st0" d="M408.75,362.38c1.08.21,2.14.41,3.21.65-.73.93-1.46,1.86-2.2,2.81-.52.67-1.03,1.35-1.55,2.02-1.06,1.35-2.09,2.68-3.12,4.04-2.2,2.83-4.38,5.67-6.59,8.51-.01,0-.01.01-.01.01-.2.27-.41.56-.64.81-2.64,3.44-5.34,6.83-8.07,10.21-.61.75-1.19,1.49-1.82,2.23h0c-.49.59-.96,1.18-1.45,1.76-.89,1.1-1.8,2.19-2.73,3.26-.03.03-.04.05-.08.08-.61.74-1.23,1.47-1.87,2.2-.07.08-.14.16-.2.25h-.01s-.05.08-.07.1c-.01,0-.01.01-.01.01-.45.5-.87,1.01-1.32,1.51-.26.28-.52.58-.77.87h-.01v.03c-.08.08-.15.17-.2.25-.12.1-.23.22-.31.34-.03.03-.05.04-.07.08-.09.1-.2.22-.3.32h-.01c-.62.71-1.25,1.41-1.88,2.11-.04.04-.08.08-.14.1-.26.26-.57.38-.88.39-.04.01-.09.03-.15.01-.01,0-.04,0-.05-.01h-.01c-.08.01-.15,0-.24-.03-.38-.08-.75-.28-1.02-.57h-.01c-.49-.53-.69-1.28-.2-1.99.18-.26.35-.53.54-.79h0s.01-.04.03-.06c.04-.05.07-.09.11-.13.04-.08.11-.17.16-.25h.01s0-.03.01-.04c.03-.05.07-.09.11-.16h0c.19-.3.41-.61.61-.89t.01-.03s0-.01.01-.01c.09-.16.19-.28.28-.43.23-.34.46-.65.71-.98.03-.06.07-.1.11-.17.01,0,.01-.01.01-.01,0-.01.01-.01.01-.03.03-.04.07-.1.09-.14.15-.21.3-.41.46-.63.01-.03.03-.05.04-.06.03-.05.07-.1.09-.14.09-.14.18-.27.27-.39.01-.03.03-.04.04-.05.01-.04.03-.05.05-.08h.01v-.03c.04-.08.09-.16.16-.22v-.03c.04-.06.08-.09.12-.14.16-.23.34-.48.52-.71.04-.08.09-.14.14-.21.85-1.19,1.72-2.38,2.6-3.57.46-.65.94-1.28,1.42-1.91.09-.13.19-.27.28-.4,1.04-1.37,2.07-2.73,3.12-4.1.57-.72,1.14-1.47,1.69-2.2,1.21-1.54,2.41-3.08,3.62-4.62.71-.88,1.41-1.77,2.13-2.66,1.32-1.67,2.63-3.32,3.97-4.97h.01c1.18-1.49,2.35-2.95,3.53-4.42,1.13-1.4,2.26-2.79,3.38-4.2h.01c.77-.96,1.53-1.91,2.29-2.85.66.12,1.33.25,1.98.38Z"/>
      </g>
      <path class="st0" d="M481.2,381.7s.08.05.12.06c12.26,6.03,21.97,14.56,31.02,23.86-9.46-9.01-19.93-17.02-31.14-23.92Z"/>
      <path class="st0" d="M567.57,449.65c-.18.65-.77,1.1-1.42,1.1-.15,0-.32-.03-.47-.08-17.25-5.56-29.89-19.28-43.28-33.79-3.36-3.64-6.83-7.41-10.36-11.01-14.78-15.17-23.77-19.95-28.62-22.5-.91-.49-1.69-.9-2.35-1.3h-.28v-.18c-30.73-18.86-65.99-29.17-102-29.8-.96-.03-1.94-.03-2.9-.03s-1.94,0-2.9.03c-36.02.63-71.28,10.94-101.99,29.8v.18h-.29c-.66.4-1.44.81-2.35,1.3-4.84,2.55-13.83,7.33-28.62,22.5-3.53,3.6-6.99,7.37-10.36,11.01-13.39,14.52-26.02,28.23-43.28,33.79-.15.05-.32.08-.47.08-.66,0-1.24-.45-1.42-1.1-.2-.65.08-1.26.68-1.59,19.95-10.57,30.38-21.97,41.4-34.04,15.36-16.79,31.21-34.14,74.31-51.47,23.61-9.48,48.94-14.33,75.29-14.4,26.34.06,51.68,4.92,75.29,14.4,43.09,17.33,58.95,34.68,74.31,51.47,11.03,12.06,21.46,23.47,41.4,34.04.6.32.88.94.68,1.59Z"/>
      <path class="st0" d="M480.22,381.09c.33.19.64.39.96.59-.33-.15-.84-.38-.96-.59Z"/>
      <path class="st0" d="M570.4,449.58c-.11.84-.82,1.68-1.93,1.68-.2,0-.4-.03-.6-.09-1.23-.32-2.43-.67-3.64-1.05-3.83-1.23-7.71-2.7-11.49-4.43-8.26-3.78-16.63-8.88-25.57-15.61-1.63-1.23-3.31-2.53-5.05-3.92-.84-.66-1.69-1.35-2.57-2.08-.59-.46-1.17-.95-1.77-1.45-.13-.1-.27-.22-.38-.32-1.12-.92-2.22-1.83-3.28-2.74-.89-.76-1.77-1.51-2.62-2.25-.59-.5-1.16-.99-1.72-1.48-.66-.55-1.28-1.1-1.9-1.63l-3.02-2.61c-1.02-.89-2.02-1.77-3.04-2.63-.82-.71-1.63-1.42-2.44-2.12-.29-.27-.61-.53-.91-.79-.28-.25-.56-.48-.82-.7-.43-.37-.85-.74-1.26-1.07-2.76-2.36-5.17-4.34-7.43-6.15-2.48-2-5.03-3.91-7.62-5.73-.5-.37-1.01-.72-1.52-1.06h-.01c-4.13-2.85-8.4-5.48-12.75-7.91-2.04-1.14-4.13-2.23-6.21-3.28-.18-.09-.35-.18-.53-.26-1.61-.81-3.24-1.59-4.86-2.34-.46-.22-.94-.43-1.4-.65-.68-.3-1.37-.59-2.07-.89-.39-.17-.8-.35-1.2-.52-.27-.12-.52-.22-.78-.34-1.73-.71-3.46-1.39-5.19-2.05-.03-.01-.04-.03-.07-.04h-.01c-1.05-.39-2.09-.76-3.14-1.14-.67-.23-1.34-.46-2.01-.68-.24-.09-.47-.17-.71-.25-1.74-.59-3.49-1.14-5.23-1.64-2.28-.68-4.54-1.3-6.8-1.86h-.01c-2.14-.54-4.24-1.02-6.35-1.43-.14-.03-.29-.06-.43-.09-1.42-.28-2.83-.54-4.24-.77-.63-.12-1.23-.19-1.86-.3h-.01s-.03,0-.04-.01c-.99-.17-2-.34-3.04-.5-.14-.01-.28-.04-.42-.06-.46-.08-.92-.13-1.4-.19-1.19-.17-2.39-.34-3.63-.49-1.1-.14-2.22-.28-3.35-.41-3.62-.4-7.38-.72-11.29-.94-.5-.03-1.02-.06-1.54-.09-1.1-.05-2.23-.12-3.38-.15-.22-.01-.43-.01-.66-.03-.96-.03-1.94-.05-2.93-.08-.66-.01-1.31-.03-1.98-.04-1.44-.03-2.9-.04-4.38-.04-3.39,0-6.73.06-9.95.18h-.13s-.03,0-.04.01c-1,.03-2,.08-2.96.13-.08,0-.17.01-.25.01-.52.03-1.03.06-1.54.09-1.14.06-2.26.14-3.38.23h-.01c-3.13.22-6.14.5-9.06.85-1.94.22-3.83.46-5.65.74h-.01c-.06.01-.1.01-.15.03-.47.06-.94.12-1.4.19-1.2.19-2.36.37-3.5.58h-.01c-.27.04-.53.09-.8.13-.36.05-.7.1-1.06.17-.81.14-1.63.28-2.46.44-.74.13-1.48.27-2.22.43-1.81.36-3.64.76-5.49,1.23-.28.06-.57.13-.87.21h-.01c-2.19.54-4.4,1.14-6.6,1.79-1.81.52-3.62,1.1-5.43,1.7-.17.05-.32.1-.49.17-.25.08-.52.17-.77.26-1.54.52-3.07,1.07-4.61,1.64h-.01s-.04.03-.07.04c-.38.14-.77.3-1.14.45h-.01c-1.23.46-2.48.97-3.71,1.47h-.01c-.1.05-.21.09-.31.13-.27.12-.53.23-.8.34-.39.18-.8.35-1.19.52-.87.36-1.72.74-2.57,1.12-.29.14-.6.27-.89.41-.07.04-.14.06-.21.1-1.27.58-2.54,1.19-3.8,1.81-.46.22-.92.45-1.38.68-1.24.62-2.48,1.26-3.71,1.92-.84.44-1.68.89-2.5,1.35-7.64,4.26-15.02,9.15-21.9,14.7-2.81,2.26-5.84,4.77-9.51,7.92-.29.26-.61.52-.91.79-.81.7-1.62,1.41-2.44,2.12-1.02.86-2.02,1.74-3.04,2.63l-3.02,2.61c-1.9,1.63-4.02,3.47-6.24,5.35-1.06.9-2.16,1.82-3.28,2.74-.11.1-.25.22-.38.32-3.38,2.79-6.45,5.24-9.39,7.44-8.95,6.73-17.31,11.83-25.57,15.61-3.78,1.73-7.66,3.2-11.49,4.43-1.21.37-2.42.72-3.64,1.05-.2.06-.4.09-.6.09-1.1,0-1.81-.84-1.93-1.68-.14-.8.27-1.75,1.44-2.06,21.05-5.72,37.79-18.49,53.52-31.93.5-.43,1.02-.86,1.52-1.3,2.11-1.82,4.22-3.65,6.31-5.47,2.21-1.92,4.44-3.88,6.7-5.82.6-.5,1.19-1.01,1.79-1.52,3.89-3.32,7.86-6.61,11.88-9.69,8.5-6.53,16.7-11.5,24.33-15.33,1.8-.92,3.57-1.75,5.3-2.54,1.34-.62,2.65-1.19,3.95-1.73.4-.17.8-.32,1.19-.49h.01c1.33-.53,2.64-1.05,3.92-1.52.4-.15.8-.3,1.19-.44,1.01-.37,2-.72,2.96-1.05h.01c.32-.12.63-.22.94-.32,2.11-.7,4.12-1.32,6.03-1.87.34-.1.66-.19.98-.27,5.86-1.68,10.8-2.75,14.52-3.68h.01c.06-.01.1-.03.14-.04.21-.1,1.54-.46,3.8-.94h.01c1.41-.3,3.2-.65,5.3-1.01.08-.01.18-.04.28-.05,5.18-.88,12.27-1.86,20.77-2.5h.01c.25-.03.52-.05.8-.06,4.59-.34,9.59-.58,14.9-.66,26.41.37,45.05,4.81,45.87,5.23,12.03,3.04,37.05,7.44,65.49,29.28,3.04,2.34,6.06,4.8,9.05,7.29.38.32.74.63,1.12.95.57.48,1.14.95,1.72,1.45.6.52,1.19,1.02,1.79,1.52,2.26,1.94,4.5,3.9,6.7,5.82.64.55,1.28,1.11,1.93,1.68.54.46,1.09.94,1.65,1.42.91.8,1.83,1.59,2.74,2.37.5.44,1.02.88,1.52,1.3,1.21,1.03,2.43,2.06,3.66,3.1.75.63,1.52,1.26,2.29,1.9,14.04,11.53,29.16,21.93,47.57,26.94,1.17.31,1.58,1.26,1.44,2.06Z"/>
      <g>
        <path class="st0" d="M203.28,403.82c-.09.19-.3.33-.53.33-.14,0-.26-.05-.38-.14-.07-.06-.15-.12-.22-.18-3.18-2.59-6.25-5.37-9.19-8.33-.94-.93-1.86-1.88-2.76-2.84-2.04-2.17-4.01-4.42-5.91-6.74-.76-.93-1.52-1.88-2.25-2.83-1.86-2.39-3.63-4.85-5.33-7.37-.46-.66-.9-1.33-1.33-2-2.83-4.34-5.42-8.84-7.74-13.46-.18-.36-.36-.7-.52-1.05h0c-2.59-5.25-4.84-10.64-6.69-16.12l.14-.23h.01s.01-.02.01-.02h.01v-.03l.04-.09.3-.49.49-.79c.03.07.06.15.09.22,2.09,5.44,4.44,10.72,7.08,15.85.17.34.36.68.53,1.01,2.36,4.52,4.96,8.93,7.79,13.27.44.68.89,1.35,1.34,2.02,1.69,2.49,3.46,4.97,5.32,7.41.73.96,1.46,1.91,2.22,2.86,1.81,2.31,3.71,4.59,5.69,6.86.86,1,1.75,2,2.65,2.99,2.73,3.03,5.62,6.03,8.66,9.03.12.11.22.22.34.34.22.22.17.43.12.54Z"/>
        <path class="st0" d="M214.53,392.5c-.15,0-.3-.06-.42-.17-18.91-16.49-32.21-38.72-37.45-62.58-.07-.3.05-.51.16-.63.17-.19.44-.31.71-.31.17,0,.57.05.68.53,5.69,23.72,18.07,44.63,36.8,62.16.25.24.2.48.14.6-.1.23-.36.4-.62.4h0Z"/>
        <path class="st0" d="M223.13,378.7c-.16,0-.3-.06-.41-.18-12.5-13.48-23.22-30.45-31.87-50.42-.09-.21-.08-.41.04-.57.14-.19.42-.31.72-.31.38,0,.69.19.83.51,6.98,16.14,16.94,32.05,31.33,50.06.16.2.11.39.05.52-.13.23-.41.4-.68.4h0Z"/>
        <path class="st0" d="M234.83,364.52c-.16,0-.31-.06-.42-.16-11.05-10.21-20.53-24.94-28.19-43.78-.1-.24-.08-.45.05-.63.16-.21.45-.33.77-.33.41,0,.73.21.88.55,6.57,16.13,16.35,29.23,27.52,43.47.16.21.12.39.05.51-.12.21-.4.37-.66.37h0Z"/>
        <path class="st0" d="M248.11,354.81c-.15,0-.27-.05-.37-.16-10.08-10.51-18.3-23.93-24.45-39.88-.08-.21-.06-.41.06-.57.14-.19.41-.3.7-.3.37,0,.66.19.78.5,5.04,13.07,12.39,25.28,23.85,39.59.15.18.1.35.04.46-.11.21-.37.36-.61.36h0Z"/>
        <path class="st0" d="M261.1,344.4c-.15,0-.27-.06-.36-.17-8.91-10.59-15.78-22.74-20.42-36.09-.07-.19-.04-.36.07-.5.13-.16.36-.26.61-.26.31,0,.56.17.65.44,4.41,12.7,10.97,24.39,20.05,35.74.15.18.1.36.04.47-.12.22-.39.38-.63.38h0Z"/>
        <path class="st0" d="M274.01,334.18c-.15,0-.27-.05-.37-.16-7.81-8.57-13.45-19.54-16.31-31.71-.06-.27.04-.46.13-.57.15-.17.4-.28.65-.28.15,0,.52.05.63.48,2.69,10.94,7.72,20.92,15.84,31.41.14.19.1.36.04.48-.12.21-.37.36-.61.36h0Z"/>
        <path class="st0" d="M282.93,325.88c-.13,0-.32-.04-.47-.24-5.89-8.28-10.37-17.82-12.96-27.59-.05-.19-.01-.37.1-.5.13-.15.35-.25.57-.25.14,0,.47.04.59.43,2.88,9.66,7.03,18.62,12.68,27.4.14.21.09.38.02.48-.1.17-.32.28-.54.28Z"/>
        <path class="st0" d="M294.58,318.45c-.2,0-.39-.09-.51-.25-5.06-6.66-8.62-14.41-10.02-21.83-.05-.25.05-.43.14-.53.13-.15.34-.24.55-.24.28,0,.49.16.57.43,2.41,8.27,5.53,15.14,9.81,21.62.15.22.1.4.03.51-.11.18-.34.3-.57.3Z"/>
        <path class="st0" d="M307.2,314.33c-.13,0-.35-.04-.47-.28-3.32-6.78-6.1-13.29-8.27-19.36-.08-.22,0-.39.08-.5.14-.19.41-.31.67-.31.14,0,.39.04.52.31,2.9,5.9,5.64,12.43,8.15,19.4.07.2,0,.36-.07.45-.13.17-.38.28-.61.28h0Z"/>
      </g>
      <g>
        <path class="st0" d="M590.96,344.16c-1.78,5.11-3.89,10.13-6.32,15.03-.17.36-.34.7-.51,1.05-2.33,4.62-4.92,9.13-7.74,13.47-.44.68-.88,1.34-1.33,2-1.7,2.53-3.48,4.99-5.34,7.37-.74.96-1.49,1.9-2.26,2.83-1.9,2.33-3.87,4.58-5.9,6.74-.91.96-1.82,1.91-2.76,2.84-2.94,2.96-6.01,5.74-9.19,8.32-.07.06-.15.12-.22.18-.12.09-.25.14-.38.14-.22,0-.44-.13-.54-.33-.04-.11-.09-.31.12-.54.12-.11.23-.23.34-.34,3.05-3,5.93-6,8.66-9.03.9-.99,1.78-1.99,2.65-2.98,1.98-2.28,3.87-4.56,5.68-6.87.76-.95,1.49-1.9,2.22-2.85,1.86-2.45,3.63-4.93,5.32-7.42.46-.67.91-1.34,1.35-2.02,2.84-4.34,5.43-8.75,7.79-13.27.17-.34.36-.68.52-1.02,2.51-4.87,4.76-9.87,6.76-15.02l.83,1.33h0s.22.36.22.36Z"/>
        <path class="st0" d="M537.24,392.5c-.26,0-.51-.16-.62-.4-.06-.12-.11-.36.14-.6,18.73-17.53,31.11-38.45,36.8-62.16.11-.47.51-.53.68-.53.27,0,.54.12.71.31.11.12.22.33.16.63-5.24,23.86-18.54,46.09-37.45,62.58-.13.11-.27.17-.42.17Z"/>
        <path class="st0" d="M528.64,378.7c-.27,0-.56-.17-.68-.4-.07-.12-.11-.31.05-.52,14.4-18.01,24.35-33.92,31.33-50.06.14-.32.45-.51.83-.51.3,0,.58.12.72.31.12.16.13.36.04.57-8.65,19.98-19.37,36.94-31.87,50.42-.11.12-.25.18-.41.18Z"/>
        <path class="st0" d="M516.95,364.52c-.27,0-.55-.15-.66-.37-.06-.12-.11-.3.05-.51,11.17-14.24,20.95-27.34,27.52-43.47.14-.35.47-.55.88-.55.32,0,.62.13.77.33.13.17.15.39.05.63-7.65,18.84-17.14,33.57-28.19,43.78-.11.1-.26.16-.42.16Z"/>
        <path class="st0" d="M503.67,354.81c-.24,0-.5-.15-.61-.36-.06-.11-.1-.28.04-.46,11.46-14.31,18.81-26.52,23.85-39.59.12-.31.41-.5.78-.5.29,0,.55.12.7.3.12.16.14.36.06.57-6.14,15.95-14.37,29.37-24.45,39.88-.1.1-.22.16-.37.16Z"/>
        <path class="st0" d="M490.67,344.4c-.24,0-.52-.16-.63-.38-.06-.12-.11-.29.04-.47,9.08-11.35,15.64-23.04,20.05-35.73.1-.28.34-.44.65-.44.25,0,.48.1.61.26.11.14.13.31.07.51-4.64,13.36-11.51,25.5-20.42,36.09-.09.11-.22.17-.36.17Z"/>
        <path class="st0" d="M477.77,334.18c-.24,0-.5-.15-.61-.36-.06-.11-.11-.29.04-.48,8.12-10.49,13.15-20.47,15.84-31.41.11-.43.48-.48.63-.48.25,0,.5.11.65.28.1.11.2.3.13.57-2.86,12.17-8.5,23.13-16.31,31.71-.1.11-.22.16-.37.16Z"/>
        <path class="st0" d="M468.85,325.88c-.22,0-.43-.11-.54-.28-.06-.1-.11-.27.03-.48,5.66-8.78,9.81-17.74,12.68-27.4.11-.38.45-.43.59-.43.22,0,.44.1.57.25.12.14.15.31.1.5-2.59,9.78-7.08,19.32-12.97,27.59-.14.2-.33.24-.47.24Z"/>
        <path class="st0" d="M457.2,318.45c-.24,0-.47-.12-.57-.3-.07-.11-.11-.28.04-.51,4.28-6.48,7.4-13.35,9.81-21.62.08-.27.29-.43.56-.43.21,0,.42.09.55.24.09.1.19.27.14.53-1.4,7.42-4.96,15.17-10.02,21.83-.12.16-.31.25-.51.25Z"/>
        <path class="st0" d="M444.58,314.33c-.23,0-.48-.11-.61-.28-.07-.09-.15-.25-.07-.45,2.51-6.97,5.25-13.5,8.15-19.4.13-.27.38-.31.52-.31.25,0,.52.12.67.31.08.1.16.28.08.5-2.17,6.07-4.95,12.58-8.27,19.36-.12.24-.35.28-.47.28Z"/>
      </g>
      <path class="st0" d="M384.09,174.36c-.21-.16-.33-.42-.3-.67.03-.25.19-.45.45-.57,2.73-1.18,5.08-.95,7.8-.68.4.04.61.06,1.01.1,5.91.56,10.81-.28,16.8-1.81,8.25-2.11,15.15-3.49,22.47-.6.05.02.1.04.15.07.39.29.47.68.27,1.02-.17.28-.54.54-1.06.36-7.29-2.52-13.89-.87-20.88.88-1.82.46-3.67.92-5.45,1.3-2.56.54-5.61,1.08-8.71,1-1.34-.04-2.67-.23-3.96-.41-2.68-.38-5.23-.74-7.87.11-.23.08-.47.06-.66-.05-.03-.02-.04-.03-.07-.04Z"/>
      <path class="st0" d="M363.13,170.9c-.22-.08-.39-.3-.41-.54-.02-.24.1-.44.34-.54,14.16-6.31,29.37-3.6,44.27-.96.05.01.07.02.12.03.38.13.53.53.44.83-.08.29-.33.43-.67.38-.76-.12-1.14-.18-1.9-.3-13.76-2.53-28.64-4.36-41.73,1.08-.14.06-.28.07-.41.04-.02,0-.03-.01-.06-.02Z"/>
      <path class="st0" d="M388.92,197.81c.35.05.69-.09.79-.26.08-.13.01-.25-.21-.36-3.92-1.91-8.44-3.52-12.89-5.18-1.1-.41-2.19-.82-3.26-1.23-2.86-1.09-6.24-2.29-9.61-2.92-2.16-.4-4.09-.53-5.93-.41-.19.01-.29.15-.29.27,0,.07.04.17.2.2h0c1.31.16,2.58.36,3.82.59,3.98.74,7.9,1.91,12.3,3.69,1.64.66,3.3,1.34,4.9,2.01,3.22,1.36,6.64,2.7,10.1,3.57.03,0,.05.01.08.02Z"/>
      <path class="st0" d="M380.88,186.38c4.25.42,8.69-.06,12.97-.54,1.42-.16,2.8-.31,4.13-.43,5.84-.51,12.09-.93,18.29-.38,6.29.55,11.84,2.04,16.96,4.61.14.07.28.11.42.12.5.04.89-.3.99-.65.06-.2.09-.58-.42-.89-4.84-3.01-10.6-4.71-17.54-5.32-3.09-.27-6.46-.32-10.32-.16-2.89.12-5.83.46-8.96.81-5.17.58-10.54,1.17-15.66.67-3.51-.35-6.53-1.16-9.25-2.49-.11-.05-.22-.08-.32-.09-.41-.04-.68.28-.79.57-.12.32-.11.8.32,1.09,2.48,1.7,5.47,2.71,9.16,3.08,0,0,0,0,0,0Z"/>
      <path class="st0" d="M336.64,166.61c-1.22-.27-2.45-.59-3.63-.96-.47-.18-.63-.46-.5-.79.12-.31.54-.59,1.04-.47.73.18,1.43.36,2.11.51,11.87,2.61,22.5.24,33.7-2.33,5.84-1.34,11.83-2.74,17.94-3.39,7.09-.75,14.29-.45,21.44.93,3.55.68,7.07,1.63,10.48,2.84,3.25,1.15,6.47,2.54,9.56,4.16.35.18.46.56.27.91-.14.25-.47.5-.86.42-.05-.02-.08-.02-.13-.04-2.54-1.21-4.99-2.22-7.5-3.11-3.43-1.21-6.96-2.17-10.48-2.85-11.05-2.13-22.61-1.76-35.47,1.06-1.11.24-3.54.78-3.54.78-11.07,2.46-22.58,4.93-34.42,2.33Z"/>
      <path class="st0" d="M338.53,342.89c-1.36-.06-30.98,5.57-60.29,20.35-9.56,4.83-18.75,10.3-27.43,16.39-8.65,6.07-16.8,12.76-24.31,20.01-7.49,7.25-14.35,15.06-20.4,23.38-1.82,2.5-3.57,5.04-5.24,7.63-.49.75.74,1.39,1.26.68,19.23-26.23,43-48.19,72.7-64.3,25.99-14.09,46.04-18.9,60.52-22.38,2.15-.52,4.24-.78,4.24-1.48,0-.42-.6-.27-1.06-.29Z"/>
      <path class="st0" d="M545.67,423.02c-6.06-8.31-12.91-16.13-20.4-23.38-7.51-7.26-15.66-13.94-24.31-20.01-8.68-6.09-17.86-11.57-27.43-16.39-29.31-14.79-58.93-20.41-60.29-20.35-.45.02-1.06-.13-1.06.29,0,.69,2.1.96,4.24,1.48,14.48,3.48,34.52,8.29,60.52,22.38,29.71,16.1,53.47,38.07,72.7,64.3.52.71,1.75.07,1.26-.68-1.67-2.59-3.42-5.13-5.24-7.63Z"/>
      <path class="st0" d="M496.97,354.97c-36.87-23.99-79.22-35.29-121.09-35.08-41.87-.21-84.22,11.1-121.09,35.08-29.41,19.15-53.55,44.94-69.07,74.98-.42.83.89,1.55,1.34.72,28.76-54.38,85.69-92.74,149.7-106.26,12.72-2.68,25.85-3.94,39.12-3.87,13.26-.06,26.4,1.19,39.12,3.87,64.02,13.52,120.95,51.88,149.7,106.26.45.83,1.76.1,1.34-.72-15.52-30.04-39.66-55.83-69.07-74.98Z"/>
      <path class="st0" d="M503.9,339.09c-36.84-23.65-80.27-36.15-125.58-36.15-.81,0-1.62,0-2.43.03-.81-.03-1.62-.03-2.43-.03-45.31,0-88.74,12.5-125.58,36.15-31.09,19.95-56.24,46.67-72.73,77.27-.32.58-.29,1.23.07,1.77.39.57,1.07.93,1.76.93s1.27-.35,1.59-.94c30.39-56,90.05-97.7,155.69-108.83,12.21-2.06,24.82-3.12,37.45-3.12,1.4,0,2.78.01,4.17.04,1.4-.03,2.78-.04,4.17-.04,12.63,0,25.24,1.06,37.45,3.12,65.64,11.13,125.3,52.84,155.69,108.83.32.59.91.94,1.59.94s1.37-.36,1.76-.93c.36-.54.39-1.19.07-1.77-16.49-30.6-41.64-57.33-72.73-77.27Z"/>
      <path class="st0" d="M499.24,324.58c-35.9-19.66-77.23-30.05-119.48-30.05-1.28,0-2.58.01-3.87.03-1.28-.01-2.58-.03-3.87-.03-42.26,0-83.58,10.39-119.48,30.05-34.44,18.85-63.7,45.78-84.65,77.89-.35.54-.38,1.16-.04,1.69.35.58,1.05.95,1.76.95.66,0,1.23-.31,1.58-.85,37.22-58.67,106.01-98.95,179.52-105.14,6.83-.58,13.78-.88,20.69-.88,1.49,0,2.99.01,4.5.04,1.51-.03,3-.04,4.5-.04,6.91,0,13.86.3,20.69.88,73.51,6.19,142.31,46.47,179.52,105.14.35.54.92.85,1.58.85.71,0,1.41-.37,1.76-.95.34-.53.31-1.15-.04-1.69-20.95-32.11-50.21-59.04-84.65-77.89Z"/>
      <g>
        <path class="st0" d="M504.27,205.36c-3.5-1.62-7.02-3.18-10.58-4.68h0c-3.71-1.55-7.45-3.05-11.22-4.48,0,0,0,0-.01,0-7.36-2.77-14.85-5.31-22.43-7.57-1.39-.41-2.78-.82-4.17-1.21h0c-6.74-1.91-13.55-3.61-20.43-5.09-6.84-1.46-13.74-2.71-20.7-3.71h0c-1.56-.23-3.11-.45-4.68-.65h0c-11.28-1.48-22.67-2.37-34.12-2.65-3.42.09-6.82.22-10.22.42h0c-3.07.17-6.13.38-9.2.64-4.91.42-9.8.94-14.68,1.58h0c-1.56.2-3.11.42-4.66.66h-.01c-6.97,1.01-13.88,2.25-20.72,3.71-1.25.27-2.51.54-3.76.83-2.06.46-4.11.95-6.16,1.46-3.5.86-7,1.79-10.46,2.77h0c-1.4.4-2.78.8-4.18,1.22h0c-7.56,2.24-15.02,4.75-22.36,7.53-3.84,1.45-7.64,2.96-11.42,4.56h0c-4.03,1.69-8.03,3.46-11.97,5.31l.97-1.55.19-.3c2.42-1.12,4.85-2.21,7.3-3.27h0c6.46-2.79,13.02-5.37,19.65-7.74,6.65-2.38,13.39-4.54,20.18-6.49,1.1-.32,2.18-.62,3.28-.92h0c11.58-3.19,23.33-5.74,35.18-7.65h0c1.71-.27,3.42-.54,5.13-.78h0c5-.72,9.99-1.33,15.02-1.82,2.57-.25,5.15-.48,7.72-.66h0c5.05-.38,10.11-.63,15.18-.77,2.74.07,5.47.18,8.21.32.28.02.57.03.84.05h0c9.67.54,19.3,1.5,28.88,2.89h0c1.71.25,3.42.51,5.12.79h.01c11.87,1.91,23.64,4.47,35.23,7.67,1.1.3,2.2.62,3.31.93,6.81,1.95,13.55,4.12,20.22,6.51,6.58,2.36,13.08,4.93,19.5,7.7h0c1.98.85,3.94,1.72,5.9,2.62l.15.25h0s.99,1.59.99,1.59Z"/>
        <path class="st0" d="M490.68,183.6c-4.68-1.82-9.4-3.55-14.18-5.17-7.19-2.44-14.48-4.64-21.85-6.6-4.87-1.31-9.79-2.51-14.73-3.61-4.92-1.09-9.86-2.06-14.84-2.92h0c-2.97-.52-5.95-1-8.95-1.43h0c-8.27-1.2-16.6-2.1-24.99-2.69-4.16-.29-8.34-.52-12.52-.65h0c-.91-.03-1.81-.06-2.71-.09-17.3.45-34.49,2.2-51.33,5.23h0c-3.25.58-6.48,1.21-9.69,1.9-1,.21-2,.42-3,.64-4.95,1.1-9.85,2.3-14.73,3.61-7.37,1.96-14.66,4.16-21.85,6.6-5.26,1.78-10.46,3.71-15.6,5.74l.82-1.29.2-.31c17.66-6.84,35.91-12.24,54.48-16.1h0c1.22-.26,2.43-.5,3.65-.74.01,0,.02,0,.04,0,18.79-3.71,37.88-5.87,57.02-6.42,2.65.07,5.29.18,7.93.32h0c12.42.65,24.81,1.97,37.1,3.96h0c23.49,3.79,46.6,9.99,68.78,18.48l.18.29.78,1.25Z"/>
        <path class="st0" d="M588.08,339.53c-49.91-48.47-111.87-80.48-177.34-91.07-11.44-1.84-23.12-3-34.86-3.43-11.74.43-23.43,1.59-34.86,3.43-66.41,10.75-129.22,43.53-179.49,93.18-.2.19-.39.38-.58.57l.49-.79.22-.35,1.62-2.58h0s.38-.62.38-.62c23.38-22.79,49.55-41.95,78.13-57.17,41.82-22.28,87.95-34.85,134.09-36.63,46.14,1.78,92.26,14.35,134.08,36.63,27.5,14.62,52.73,32.92,75.42,54.57.01.01.03.03.04.04l.34.54v.02s.05.04.05.04l2.27,3.62Z"/>
        <path class="st0" d="M557.3,290.24c-42.55-30.94-91.22-51.59-141.95-59.68-12.95-2.06-26.2-3.26-39.46-3.6-13.26.34-26.51,1.53-39.47,3.6-51.5,8.21-100.88,29.37-143.88,61.12l1.67-2.69h.01s.21-.35.21-.35h0c14.32-10.36,29.42-19.6,45.23-27.65,42.43-21.64,89.36-33.7,136.23-35.12,46.88,1.42,93.79,13.48,136.23,35.12,15.09,7.7,29.54,16.47,43.3,26.26l.23.37,1.65,2.62Z"/>
        <path class="st0" d="M520.49,231.32c-.36-.19-.71-.38-1.07-.57-6.29-3.32-12.67-6.45-19.16-9.4h0c-.66-.3-1.31-.6-1.97-.9-.12-.05-.23-.1-.35-.15-4.7-2.1-9.46-4.11-14.25-6.01-1.21-.48-2.42-.96-3.64-1.42-1.1-.42-2.2-.84-3.31-1.25-5.24-1.94-10.52-3.76-15.87-5.43h0c-1.96-.62-3.91-1.21-5.88-1.78-.58-.17-1.15-.34-1.73-.5h0c-6.58-1.88-13.23-3.54-19.95-4.93-.71-.15-1.44-.29-2.15-.44-3.76-.75-7.53-1.43-11.33-2.04-2.35-.38-4.7-.73-7.06-1.05h-.01c-11.41-1.58-22.97-2.55-34.59-2.88h0c-.75-.03-1.5-.05-2.25-.07-.4,0-.8.02-1.2.03-11.96.31-23.88,1.29-35.64,2.91h-.01c-2.36.33-4.7.68-7.04,1.06h0c-3.81.61-7.59,1.29-11.35,2.04-.71.14-1.44.28-2.15.44-6.72,1.39-13.38,3.05-19.96,4.93-.58.16-1.15.33-1.73.5-1.97.58-3.92,1.17-5.88,1.78h0c-5.34,1.67-10.63,3.49-15.87,5.43-1.1.41-2.2.82-3.3,1.25h0c-1.22.46-2.43.93-3.64,1.41h0c-4.79,1.9-9.54,3.91-14.24,6.01-.12.05-.24.11-.36.16-.66.29-1.31.6-1.97.9h0c-6.48,2.95-12.87,6.08-19.16,9.4-.88.47-1.77.94-2.65,1.41l2.05-3.29.2-.31h0c3.11-1.66,6.21-3.22,9.27-4.69,1.55-.74,3.1-1.47,4.66-2.18,0,0,0,0,.01,0,1.46-.68,2.93-1.33,4.4-1.98,0,0,0,0,0,0,4.68-2.08,9.42-4.04,14.2-5.89h0c1.24-.48,2.48-.95,3.72-1.41h0c5.95-2.23,11.96-4.28,18.03-6.15,2.31-.72,4.64-1.41,6.97-2.07t.01,0c11.83-3.38,23.86-6.11,35.99-8.16h0c2.15-.36,4.29-.7,6.44-1.03,12.12-1.82,24.32-2.96,36.54-3.41h0c.98-.04,1.96-.07,2.94-.1h0c.24,0,.47-.01.71-.02,13.44.35,26.89,1.53,40.21,3.53h0c2.14.32,4.29.66,6.42,1.03h0c12.12,2.05,24.15,4.78,35.97,8.16h0c2.33.67,4.66,1.36,6.98,2.08h0c6.07,1.88,12.09,3.93,18.03,6.15h0c1.25.46,2.48.93,3.72,1.41,4.79,1.85,9.52,3.81,14.21,5.88,1.47.65,2.94,1.31,4.41,1.99,1.56.72,3.11,1.44,4.66,2.18,2.55,1.23,5.12,2.51,7.71,3.86l.2.33,2.04,3.26Z"/>
        <path class="st0" d="M536.12,256.34c-39.16-23.34-82.28-38.66-126.6-44.53-11.13-1.47-22.41-2.39-33.63-2.7-11.22.31-22.51,1.23-33.63,2.7-44.95,5.95-88.68,21.63-128.28,45.53l1.18-1.88.2-.32c9.88-5.87,20.06-11.27,30.57-16.18,40.45-18.92,85.2-29.52,129.95-30.87,44.75,1.35,89.49,11.95,129.95,30.87,9.93,4.64,19.58,9.74,28.94,15.25h0s.17.27.17.27l1.17,1.87Z"/>
        <path class="st0" d="M492.9,305.16c-35.57-18.61-75.97-28.66-117.01-29.11-41.04.45-81.44,10.5-117.01,29.11-40.34,21.12-74.04,51.58-97.43,88.07-.66,1.02,1.03,1.91,1.69.93,47.63-71.17,129.11-115.73,212.66-116.33h.17c83.55.59,165.03,45.16,212.66,116.33.66.98,2.35.09,1.69-.93-23.38-36.49-57.08-66.95-97.43-88.07Z"/>
        <path class="st0" d="M578.23,352.07c-45.45-49.22-109.85-82.19-171.55-88.82-10.3-1.11-20.53-1.9-30.8-2.18-10.26.28-20.49,1.07-30.8,2.18-61.7,6.63-126.1,39.6-171.55,88.82-7.79,8.44-12.14,13.7-18.97,22.77-.36.54.56.94.92.44,7.34-9.6,11.87-14.75,18.83-22.72,22.75-23.86,49.14-43.71,78.4-59.04,28.77-15.08,59.8-25.02,92.2-29.56,6.57-.67,13.61-1.25,20.9-1.7,3.34-.19,6.7-.34,10.07-.41,3.36.08,6.73.22,10.07.41,7.29.45,14.32,1.03,20.9,1.7,32.4,4.54,63.43,14.48,92.2,29.56,29.26,15.33,55.64,35.18,78.4,59.04,6.97,7.97,11.49,13.12,18.83,22.72.36.5,1.28.1.92-.44-6.83-9.07-11.18-14.33-18.97-22.77Z"/>
      </g>
      <path class="st0" d="M532.47,435.48c-4.87,6.5-10.6,12.71-17.09,18.55h0c-1.76,1.59-3.57,3.15-5.44,4.68-.59.48-1.17.95-1.77,1.42-4.06,3.23-8.36,6.28-12.9,9.17-1.45.93-2.93,1.85-4.44,2.72-4.45,2.67-9.12,5.17-13.93,7.48-11.5,5.54-24.29,10.21-38,13.92-19.28,5.2-37.71,8.4-54.78,9.5-2.37.15-4.84.23-7.33.23h-.91c-10.19-.08-20.2-1.34-32.11-3.23-15.2-2.4-29.52-5.77-42.55-9.99-13.02-4.22-25.11-9.42-35.93-15.43-10.82-6.03-20.65-13.04-29.2-20.85-6.41-5.84-12.02-11.96-16.7-18.18-.29-.4-.34-.81-.11-1.21.24-.41.74-.68,1.28-.68.45,0,.87.19,1.13.53,7.15,9.08,15.48,17.32,24.75,24.46,9.38,7.25,20.06,13.66,31.73,19.08,11.66,5.42,24.6,9.96,38.49,13.52,8.75,2.25,18.04,4.14,27.61,5.64,8.93,1.41,18.16,2.84,27.4,3.2,1.34.05,2.69.08,4.03.08,11.71,0,23.56-1.85,35.7-3.88,15.09-2.55,29.27-6.08,42.16-10.49,6.17-2.13,12.13-4.46,17.81-7.02,1.09-.48,2.15-.97,3.21-1.47,5.04-2.37,9.87-4.92,14.45-7.61,2.11-1.24,4.19-2.53,6.21-3.86,1.4-.9,2.78-1.83,4.15-2.79,0-.01.01-.01.01-.03,5.6-3.88,10.83-8.08,15.68-12.53h0c.88-.81,1.74-1.63,2.6-2.45.34-.34.68-.66,1-.99,4.1-4.06,7.97-8.37,11.47-12.86.27-.34.68-.53,1.13-.53.54,0,1.05.27,1.28.68.21.37.17.83-.11,1.2Z"/>
      <g>
        <path class="st0" d="M447.02,483.2c9.72-9.25,23.2-20.04,31.08-44.46,6.04-18.72,4.03-35.76.96-51.39.04-.13.11-.17.2-.17h0c.07,0,.25.01.31.15,5.98,14.7,5.55,35.69-1.02,54.88-9.96,29.1-28.7,42.16-30.46,42.23-.35.01-1.38-.96-1.08-1.25Z"/>
        <path class="st0" d="M501.19,462.45s-1.78.53-1.78.55c-1.27,2.17-1.21,3.34-2.69,5.39-1.45.93-4.37,2.77-5.88,3.65,12.58-16.36,19.3-35.66,18.94-56.19-.01-1.78-.1-3.57-.24-5.37.54.46,1.09.94,1.65,1.42.17,1.81.27,3.61.31,5.43.39,15.9-2.15,31.36-10.31,45.12Z"/>
        <path class="st0" d="M515.39,454.04h0c-1.76,1.59-3.57,3.15-5.44,4.68,2.01-2.66,2.83-4.61,4.26-7.47h0c5.46-10.86,5.99-19.45,5.35-27.17-.04-.63-.1-1.25-.15-1.88l-.2-2.21c-.03-.41-.07-.86-.1-1.32.75.63,1.52,1.26,2.29,1.9.2.86.35,1.77.47,2.71.13.93.2,1.88.25,2.88.41,8.48.05,18.41-6.73,27.88Z"/>
        <path class="st0" d="M474.1,480.84c-.55.6-4.83-.02-4.21-.63,21.2-20.68,26.72-47.45,26.5-75.89,0-1.73-.04-3.47-.1-5.25.38.32.74.63,1.12.95.11,1.81.2,3.6.24,5.37.72,27.88-2.93,55.58-23.55,75.46Z"/>
      </g>
      <g>
        <path class="st0" d="M304.86,483.2c-9.72-9.25-23.2-20.04-31.08-44.46-6.04-18.72-4.03-35.76-.96-51.39-.04-.13-.11-.17-.2-.17h0c-.07,0-.25.01-.31.15-5.98,14.7-5.55,35.69,1.02,54.88,9.96,29.1,28.7,42.16,30.46,42.23.35.01,1.38-.96,1.08-1.25Z"/>
        <path class="st0" d="M250.69,462.45s1.78.53,1.78.55c1.27,2.17,1.21,3.34,2.69,5.39,1.45.93,4.37,2.77,5.88,3.65-12.58-16.36-19.3-35.66-18.94-56.19.01-1.78.1-3.57.24-5.37-.54.46-1.09.94-1.65,1.42-.17,1.81-.27,3.61-.31,5.43-.39,15.9,2.15,31.36,10.31,45.12Z"/>
        <path class="st0" d="M236.49,454.04h0c1.76,1.59,3.57,3.15,5.44,4.68-2.01-2.66-2.83-4.61-4.26-7.47h0c-5.46-10.86-5.99-19.45-5.35-27.17.04-.63.1-1.25.15-1.88l.2-2.21c.03-.41.07-.86.1-1.32-.75.63-1.52,1.26-2.29,1.9-.2.86-.35,1.77-.47,2.71-.13.93-.2,1.88-.25,2.88-.41,8.48-.05,18.41,6.73,27.88Z"/>
        <path class="st0" d="M277.78,480.84c.55.6,4.83-.02,4.21-.63-21.2-20.68-26.72-47.45-26.5-75.89,0-1.73.04-3.47.1-5.25-.38.32-.74.63-1.12.95-.11,1.81-.2,3.6-.24,5.37-.72,27.88,2.93,55.58,23.55,75.46Z"/>
      </g>
    </g>
    <g>
      <path class="st0" d="M216.17,438.27c-.22-.27-.71-.04-.52.27,22.42,33.51,59.94,58.38,99.95,70.91,19.39,6.08,39.83,9.2,60.29,9.38v-2.62c-19.84-.15-39.67-3.06-58.56-8.75-41.35-12.43-74.94-37.62-101.17-69.2Z"/>
      <path class="st0" d="M214.53,447.69c-.29-.36-.96-.03-.67.37,36.77,49.92,98.05,80.56,162.05,83.12v-2.52c-17.74-.61-35.36-3.34-52.43-8.06-43.75-12.1-81.93-38.73-108.94-72.91Z"/>
      <path class="st0" d="M254.84,497.73c-13.16-10.08-23.48-21.62-34.41-33.86l-2.28-2.52c7.93,12.62,20.17,25.2,37.43,38.46,14.8,11.37,30.8,20.51,47.53,27.21,23.37,9.32,48.47,14.44,72.79,14.85v-2.89c-25.94-.48-50.19-5.11-72.16-13.77-17.81-7.02-34.24-16.26-48.9-27.49Z"/>
      <path class="st0" d="M318.19,538.79c-33.29-10.18-63.54-28.73-87.63-53.09-.5-.5-1.3.26-.8.77,23.97,24.99,54.19,43.92,87.83,54.4,18.33,5.7,38.31,9.21,58.3,9.74v-2.64h-.34c-19.45-.41-38.82-3.5-57.37-9.17Z"/>
      <path class="st0" d="M536.15,438.54c.2-.31-.29-.54-.52-.27-26.23,31.57-59.82,56.77-101.17,69.2-18.89,5.69-38.72,8.59-58.56,8.75v2.62c20.46-.18,40.9-3.3,60.29-9.38,40.01-12.53,77.53-37.4,99.95-70.91Z"/>
      <path class="st0" d="M537.28,447.69c-27.01,34.18-65.19,60.81-108.94,72.91-17.07,4.72-34.69,7.46-52.43,8.06v2.52c63.99-2.55,125.28-33.2,162.05-83.12.29-.4-.38-.74-.67-.37Z"/>
      <path class="st0" d="M496.96,497.73c-14.66,11.24-31.09,20.48-48.9,27.49-21.97,8.66-46.22,13.29-72.16,13.77v2.89c24.32-.41,49.42-5.54,72.79-14.85,16.74-6.7,32.74-15.84,47.53-27.21,17.25-13.26,29.5-25.84,37.43-38.46l-2.28,2.52c-10.93,12.23-21.25,23.78-34.41,33.86Z"/>
      <path class="st0" d="M521.24,485.7c-24.08,24.36-54.33,42.91-87.63,53.09-18.55,5.68-37.93,8.76-57.37,9.17h-.33v2.64c19.99-.53,39.97-4.04,58.3-9.74,33.64-10.48,63.87-29.4,87.83-54.4.5-.52-.29-1.28-.8-.77Z"/>
    </g>
  </g>
  <path class="st0" d="M86.43,599.77c-21.03-15.77-38.02-36.35-49.41-59.15l.39-.63.64-1.02c11.56,23,28.29,43.15,49.35,59.91.67.54-.3,1.4-.97.89Z"/>
  <path class="st0" d="M91.58,582.69c-.55.31-.99.76-1.28,1.27-16.87-17.15-32.43-35.91-45.68-55.5l.36-.58.78-1.25c7.45,10.59,15.07,21,23.41,31.06,7.14,8.62,14.67,16.9,22.42,25Z"/>
  <path class="st0" d="M106.37,597.71c-3.6-3.57-7.16-7.16-10.68-10.78-.28.5-.67.93-1.19,1.24,3.59,3.55,7.23,7.03,10.92,10.42.62.57,1.56-.29.95-.88Z"/>
  <path class="st0" d="M82.47,545.45c-.06.06-.11.13-.16.19-.49-.42-1.11-.78-1.75-.78h-.44c-.31,0-.6.03-.88.06-8.74-10.77-16.74-22.04-23.83-33.72l.35-.56.77-1.24c7.82,12.59,16.49,24.6,25.95,36.05Z"/>
  <path class="st0" d="M86.43,550.18c-.55.42-1.26.69-2.13.69-.06,0-.11-.01-.17-.02,3.83,4.49,7.78,8.89,11.86,13.17.43-.59,1.01-1.06,1.71-1.34-3.87-4.09-7.63-8.26-11.28-12.51Z"/>
  <path class="st0" d="M119.9,584.09c-3.4-3.01-6.74-6.06-10-9.18-.09.08-.16.17-.25.25-.48.39-1.06.62-1.67.74,3.44,3.24,6.98,6.38,10.56,9.46.32-.51.8-.95,1.36-1.28Z"/>
  <path class="st0" d="M136.8,598.24c-2.01-1.57-3.98-3.17-5.94-4.78-.24.45-.58.86-1.02,1.2,1.96,1.53,3.93,3.05,5.93,4.53.71.52,1.74-.39,1.03-.95Z"/>
  <path class="st0" d="M98.41,537.44c-.48.21-.89.52-1.23.91-11.78-13.76-22.3-28.42-31.37-43.82,0,0,0,0,0,0l.33-.54.56-.88c4.76,8.1,9.88,16.02,15.43,23.72,5.13,7.11,10.57,13.97,16.28,20.61Z"/>
  <path class="st0" d="M174.16,413.17c-.47.21-.88.52-1.23.9-11.38-13.3-21.59-27.44-30.45-42.27h0s.89-1.43.89-1.43c4.5,7.57,9.32,14.97,14.51,22.17,5.13,7.11,10.57,13.98,16.28,20.62Z"/>
  <path class="st0" d="M606.86,369.6c-5.06,8.36-10.56,16.51-16.46,24.39-.07.09-.14.19-.21.28-2.05,2.75-4.16,5.48-6.32,8.16-.7.88-1.41,1.75-2.12,2.62-1.45,1.76-2.91,3.52-4.4,5.25-.34-.38-.75-.7-1.23-.9,1.49-1.74,2.97-3.48,4.42-5.25.83-1.01,1.65-2.01,2.47-3.03,1.88-2.35,3.73-4.71,5.55-7.11.41-.55.82-1.1,1.23-1.66.89-1.19,1.76-2.37,2.62-3.57,4.84-6.71,9.35-13.59,13.57-20.61l.89,1.42Z"/>
  <path class="st0" d="M121.36,562.35c.12-.2.28-.36.42-.53-2.97-2.79-5.9-5.61-8.75-8.51-.22.16-.47.31-.75.43-.25.11-.52.19-.78.24,3.07,3.15,6.24,6.22,9.45,9.26.11-.31.24-.62.41-.9Z"/>
  <path class="st0" d="M136.7,575.44c.03-.1.09-.18.13-.28-1.69-1.41-3.36-2.82-5.02-4.26-.06.07-.12.14-.19.2-.36.31-.83.54-1.33.69,2.03,1.78,4.1,3.53,6.18,5.27-.03-.52.04-1.07.22-1.62Z"/>
  <path class="st0" d="M170.62,600h-3.23c-.91-.6-1.81-1.21-2.71-1.82.12-.09.26-.16.38-.26.36-.32.62-.66.85-1.03,1.56,1.05,3.13,2.08,4.71,3.11Z"/>
  <path class="st0" d="M153.31,588.05c-2.07-1.52-4.12-3.06-6.15-4.62-.36.46-.81.86-1.35,1.15,2.18,1.69,4.38,3.34,6.6,4.98.16-.59.48-1.09.9-1.5Z"/>
  <path class="st0" d="M116.39,526.37c-.41.32-.76.73-1.04,1.19-14.65-15.53-27.72-32.34-38.83-50.18l.32-.51.61-.98c.91,1.45,1.82,2.92,2.74,4.36,10.56,16.42,22.71,31.83,36.2,46.11Z"/>
  <path class="st0" d="M217.72,600h-3.67c-8.53-4.15-16.88-8.67-24.97-13.47-.44-.26-.88-.54-1.32-.8.35-.5.59-1.06.66-1.62,9.47,5.72,19.24,11.03,29.29,15.88Z"/>
  <path class="st0" d="M176.77,578.61c.3-.45.71-.79,1.19-1.06-3.66-2.39-7.28-4.83-10.83-7.34-.22.53-.55,1.01-.96,1.42,3.46,2.45,6.96,4.83,10.52,7.15.04-.06.05-.12.09-.17Z"/>
  <path class="st0" d="M156.54,563.17c.1-.15.23-.28.37-.42-2.84-2.17-5.65-4.37-8.42-6.62-.57.38-1.23.59-1.94.56,3.11,2.56,6.28,5.06,9.49,7.51.13-.36.29-.71.5-1.03Z"/>
  <path class="st0" d="M120.39,501.28c-.51.23-.92.58-1.24,1-11.25-14.07-21.43-28.89-30.53-44.25l.3-.48.64-1.01c1.22,2.09,2.47,4.17,3.73,6.23,8.18,13.32,17.24,26.2,27.1,38.52Z"/>
  <path class="st0" d="M124.13,505.88c-.29.43-.68.79-1.16,1.06,5.91,7.15,12.07,14.12,18.55,20.81.3-.45.68-.84,1.12-1.15-6.46-6.67-12.62-13.6-18.52-20.72Z"/>
  <path class="st0" d="M176.77,559.1c.26-.39.62-.7,1.03-.96-2.85-2.21-5.66-4.46-8.42-6.76-.32.41-.71.78-1.17,1.06,2.78,2.31,5.62,4.56,8.49,6.79.03-.05.05-.09.08-.14Z"/>
  <path class="st0" d="M207.55,501.39c.26-.39.62-.7,1.03-.96-2.85-2.21-5.66-4.46-8.42-6.76-.32.41-.71.78-1.17,1.06,2.78,2.31,5.62,4.56,8.49,6.79.03-.05.05-.09.08-.14Z"/>
  <path class="st0" d="M197.9,572.49c-3.66-2.41-7.28-4.86-10.82-7.4-.07.13-.13.27-.22.4-.2.3-.48.55-.78.78,3.1,2.23,6.23,4.43,9.44,6.55.49.32.98.63,1.47.95.22-.47.52-.9.91-1.27Z"/>
  <path class="st0" d="M221.32,586.44c-4.61-2.47-9.14-5.05-13.59-7.74-.13.5-.35.97-.63,1.4,4.39,2.63,8.87,5.15,13.41,7.56.2-.45.47-.86.82-1.22Z"/>
  <path class="st0" d="M250.17,600h-3.41c-5.74-2.35-11.36-4.89-16.9-7.59.29-.38.53-.8.67-1.24,6.4,3.15,12.93,6.11,19.64,8.83Z"/>
  <path class="st0" d="M187.19,516.03c-.24.02-.48.02-.72.02h-.06s.02.03.03.05c.48.71.68,1.46.69,2.19,1.82,1.66,3.67,3.29,5.54,4.91.39-.42.9-.77,1.46-.99-2.34-2.03-4.65-4.1-6.94-6.18Z"/>
  <path class="st0" d="M212.53,536.22c-3.54-2.67-7.05-5.39-10.48-8.18-.11.59-.34,1.16-.68,1.67,3.26,2.66,6.6,5.25,9.97,7.8.29-.5.67-.95,1.18-1.29Z"/>
  <path class="st0" d="M227.6,546.99c.09-.07.19-.12.28-.18-2.97-1.97-5.92-3.96-8.82-6.01-.02.07-.03.15-.05.22-.16.48-.46.92-.84,1.3,2.8,1.97,5.63,3.9,8.49,5.8.25-.44.57-.84.94-1.13Z"/>
  <path class="st0" d="M340.24,596.97c-36.4-9.52-70.69-24.3-101.76-43.39-.17.56-.46,1.1-.85,1.56,6.9,4.23,13.96,8.25,21.18,12.02,25.53,13.35,52.81,23.76,81.08,31.02.83.21,1.19-.99.36-1.21Z"/>
  <path class="st0" d="M125.49,475.8c-.62.05-1.16.23-1.6.53-8.66-12-16.47-24.51-23.3-37.46l.29-.47.75-1.21c.7,1.35,1.41,2.71,2.15,4.07,6.48,11.99,13.74,23.52,21.72,34.54Z"/>
  <path class="st0" d="M128.49,479.84c-.19.55-.5,1.05-.94,1.46,3.75,5,7.64,9.9,11.68,14.7.44-.35,1-.61,1.54-.7-4.26-5.03-8.34-10.19-12.28-15.45Z"/>
  <path class="st0" d="M144.86,500.01c-.1.28-.23.55-.4.8-.14.21-.34.4-.56.58,3.41,3.87,6.91,7.68,10.51,11.41.2-.54.51-1.02.94-1.42-3.59-3.71-7.08-7.5-10.49-11.37Z"/>
  <path class="st0" d="M170.53,526.11c-2.11-1.92-4.2-3.86-6.25-5.83-.09.17-.17.34-.28.5-.2.3-.49.56-.81.79,1.94,1.87,3.93,3.71,5.92,5.54.37-.42.87-.77,1.42-1Z"/>
  <path class="st0" d="M190.55,542.99c-3.72-2.91-7.4-5.88-10.99-8.93-.13.48-.34.94-.62,1.36-.06.08-.14.16-.21.24,3.28,2.8,6.63,5.53,10.03,8.21.49-.42,1.12-.71,1.79-.87Z"/>
  <path class="st0" d="M211.38,558.07c-3.3-2.22-6.56-4.48-9.77-6.79.07.7-.03,1.41-.28,2.05,2.86,2.05,5.76,4.05,8.68,6.02.32-.52.81-.96,1.37-1.29Z"/>
  <path class="st0" d="M294.48,600h-3.31c-22.25-7.71-43.61-17.73-63.64-29.55-2.07-1.22-4.11-2.46-6.14-3.72.31-.58.51-1.21.53-1.84,22.42,13.95,46.61,25.64,72.15,34.73.23.07.36.22.42.39Z"/>
  <path class="st0" d="M373.85,591.04c-47.65-10.4-93.75-27.67-133.79-53.85.09.61.05,1.23-.11,1.81,15,9.73,30.87,18.31,47.37,25.68,27.41,12.25,56.46,21.44,86.16,27.61.88.17,1.25-1.06.37-1.26Z"/>
  <path class="st0" d="M156.08,420.61c-.53.29-1,.66-1.3,1.11,0,0,0,.01-.01.02-8.24-10.39-16.03-21.1-23.49-32.03l1.07-1.7c5.79,8.57,11.78,17.02,18.08,25.31,1.86,2.44,3.74,4.87,5.66,7.29Z"/>
  <path class="st0" d="M161.64,427.51c-.39.41-.88.74-1.42.98,4.17,5.06,8.45,10.05,12.87,14.93.31-.49.7-.93,1.18-1.23-4.34-4.8-8.55-9.7-12.64-14.67Z"/>
  <path class="st0" d="M619.58,389.98c-12.45,15.67-25.69,30.77-40.08,44.86-.28-.51-.65-.96-1.1-1.29,9-8.85,17.54-18.07,25.65-27.52,4.98-5.8,9.8-11.69,14.52-17.67l1.01,1.62Z"/>
  <path class="st0" d="M345.44,568.1c0,.13.02.25.01.37-.02.37-.12.72-.25,1.04,6.22,1.21,12.47,2.23,18.76,3.06-.14-.48-.19-.97-.15-1.42,0,0,0-.01,0-.02-6.16-.83-12.29-1.85-18.38-3.03Z"/>
  <path class="st0" d="M333.48,566.28c.01-.25.06-.5.13-.73-26.72-6.32-52.37-16.27-75.68-30.33-11.44-6.9-22.08-14.68-32.02-23.15-.57.33-1.2.52-1.86.55,7.81,6.7,16.04,12.97,24.72,18.71,23.02,15.21,49.09,26.3,76.24,33.56,2.82.75,5.65,1.46,8.5,2.13-.03-.25-.04-.49-.03-.73Z"/>
  <path class="st0" d="M382.39,573.09c0,.09.01.18,0,.26-.04.4-.15.76-.3,1.09,5.51.41,11.03.7,16.56.84.35-.58.89-1.04,1.65-1.28-5.98-.15-11.96-.45-17.92-.91Z"/>
  <path class="st0" d="M502.85,586.22c.2.22.37.46.5.71,11.07-4.8,21.91-10.08,32.47-15.82-.29-.53-.42-1.12-.43-1.72-10.71,5.84-21.72,11.23-33.01,16.13-.07.03-.15.06-.22.1.26.18.5.38.7.6Z"/>
  <path class="st0" d="M490.64,592.17c-7.13,2.81-14.35,5.44-21.65,7.83h-5.35c9.07-2.9,18.03-6.09,26.88-9.58-.08.45-.1.9-.01,1.31.04.16.09.29.14.44Z"/>
  <path class="st0" d="M664.05,461.14c-7.97,10.71-16.58,21-25.74,30.84-25.79,27.73-56.24,52.14-89.83,71.96.14-.66.12-1.33-.04-1.96,45.04-26.73,84.14-61.66,114.6-102.44l.73,1.15.29.46Z"/>
  <path class="st0" d="M541,591.58c-5.1,2.89-10.24,5.71-15.43,8.42h-3.44c2.7-1.39,5.4-2.81,8.09-4.26,3.49-1.89,6.95-3.81,10.4-5.77.03.56.15,1.1.38,1.61Z"/>
  <path class="st0" d="M567.34,573.61c-6.01,3.92-12.11,7.74-18.3,11.42.36.44.6.93.74,1.44,6.55-3.89,13-7.94,19.35-12.1-.65-.04-1.27-.36-1.79-.76Z"/>
  <path class="st0" d="M599.38,552.42c-.62.02-1.2-.06-1.73-.21-7.21,5.49-14.57,10.8-22.09,15.93.34.45.56.96.67,1.5,8.14-5.54,16.09-11.31,23.87-17.28-.24.03-.47.06-.71.06Z"/>
  <path class="st0" d="M676.15,480.52c-7,8.22-14.34,16.23-21.94,24-14.05,14.34-29.09,27.93-44.97,40.68-.07-.27-.15-.52-.28-.77-.13-.25-.29-.48-.46-.7,24.33-19.58,46.69-41.23,66.76-64.65l.6.96.3.48Z"/>
  <path class="st0" d="M698.82,516.83c-2.97,4.14-6.05,8.22-9.17,12.26-.15-.5-.4-.97-.78-1.41-.02-.02-.05-.04-.07-.06,3.11-4.04,6.16-8.13,9.11-12.27l.57.92.35.56Z"/>
  <path class="st0" d="M648.85,574.86c4.81-4.69,9.52-9.47,14.1-14.35-.52-.25-.98-.58-1.35-.98-4.6,4.9-9.32,9.71-14.15,14.42.53.2,1.01.51,1.4.92Z"/>
  <path class="st0" d="M639,584.16c-5.92,5.42-11.99,10.72-18.21,15.84h-2.47c6.53-5.34,12.89-10.87,19.08-16.55.46.36,1.01.6,1.61.7Z"/>
  <path class="st0" d="M671.46,551.1c3.55-4.03,7.03-8.11,10.43-12.25-.53-.17-.99-.46-1.37-.82-3.22,3.92-6.54,7.77-9.91,11.59.39.43.68.93.86,1.48Z"/>
  <path class="st0" d="M667.88,590.81c-3.07,3.1-6.19,6.18-9.36,9.19h-2.18c3.52-3.34,6.98-6.74,10.38-10.19.05.05.08.12.13.17.29.32.65.59,1.03.82Z"/>
  <path class="st0" d="M690.6,564.38c-.14-.16-.25-.33-.36-.5-5.05,6.05-10.28,11.97-15.68,17.76.43.26.82.58,1.11.92.02.03.04.06.06.09,3.42-3.64,6.79-7.33,10.07-11.08,1.88-2.16,3.72-4.35,5.56-6.55-.28-.19-.54-.4-.76-.64Z"/>
  <path class="st0" d="M712.06,538.01c-4.15,5.92-8.48,11.73-12.94,17.44-.39-.34-.85-.63-1.36-.84,4.63-5.9,9.11-11.9,13.4-18.03l.53.85.37.59Z"/>
  <path class="st0" d="M722.37,554.52c-3.23,4.85-6.62,9.6-10.12,14.29-.39-.34-.85-.62-1.35-.82,3.67-4.86,7.21-9.81,10.6-14.88l.49.78.38.62Z"/>
  <path class="st0" d="M703.29,580.31c-5.51,6.76-11.28,13.34-17.34,19.69h-2.47c6.39-6.57,12.46-13.39,18.27-20.41.06.05.1.09.16.13.41.27.88.46,1.38.59Z"/>
  <path class="st0" d="M595.1,585.32c-7.83,5.15-15.86,10.05-24.06,14.68h-2.92c8.51-4.74,16.82-9.77,24.91-15.07.63.28,1.36.41,2.07.4Z"/>
  <path class="st0" d="M607.78,576.58c7.11-5.09,14.05-10.39,20.79-15.89-.35-.4-.6-.84-.74-1.32-6.72,5.51-13.65,10.8-20.75,15.9.31.4.55.84.71,1.31Z"/>
  <path class="st0" d="M688.24,499.89c-5.74,7.37-11.78,14.52-18.1,21.47-.99-.11-2,.1-2.79.83l-.15.13c7.08-7.63,13.86-15.52,20.26-23.67l.46.72.32.52Z"/>
  <path class="st0" d="M662.24,527.59c-7.74,8.05-15.83,15.8-24.28,23.2.53.16,1.03.41,1.47.73,7.86-6.9,15.43-14.1,22.66-21.56-.2-.78-.13-1.61.15-2.38Z"/>
  <path class="st0" d="M480.84,571.7c-.3-.36-.5-.76-.65-1.18-13.11,5.64-26.5,10.76-40.15,15.33-4.41,1.48-8.85,2.89-13.31,4.24.55.32.98.77,1.27,1.31,18.07-5.53,35.79-12.05,53.07-19.48-.07-.08-.16-.15-.23-.22Z"/>
  <path class="st0" d="M514.19,554.4c-7.91,4.11-15.94,8.02-24.09,11.73.27.5.41,1.05.46,1.6,8.11-3.68,16.11-7.57,24-11.65-.26-.51-.38-1.08-.36-1.69Z"/>
  <path class="st0" d="M655.63,447.67c-13.96,15.71-29.16,30.48-45.31,44.24-14.24,12.14-29.29,23.52-45.01,34.08-.28-.5-.67-.93-1.12-1.29,33.45-22.53,63.93-48.84,90.61-78.35l.56.9.27.42Z"/>
  <path class="st0" d="M553.4,532.68c-.18-.2-.33-.41-.45-.63-6.92,4.4-13.95,8.66-21.11,12.74.37.45.64.95.8,1.46,7.29-4.14,14.45-8.47,21.5-12.94-.27-.19-.52-.39-.74-.63Z"/>
  <path class="st0" d="M309.74,145.68c0-.22-.03-.46-.08-.74l-.03-.19.2-.04c12.25-2.71,24.95-4.76,37.77-6.08l.18-.02.05.16c.08.24.19.5.35.77l.15.26-.32.03c-12.63,1.31-25.42,3.38-38,6.15l-.27.06v-.37Z"/>
  <path class="st0" d="M278.48,153.69l.25-.4.08-.02c7.91-2.62,16.18-4.99,24.6-7.04l.27-.07v.36c0,.21.02.44.07.7l.03.18-.19.05c-8.57,2.07-17.07,4.49-25.25,7.18l-.56.18.71-1.12Z"/>
  <path class="st0" d="M358.06,138.62c.02-.09.04-.18.05-.27,0-.14,0-.28-.02-.43l-.02-.2.22-.02c8.28-.59,16.41-.89,24.14-.89,6.72,0,13.63.21,20.54.63h.17s.03.17.03.17c.04.23.11.47.22.74l.12.29-.34-.02c-6.86-.41-13.68-.62-20.26-.62-8.04,0-16.33.31-24.65.92l-.29.02.08-.34Z"/>
  <path class="st0" d="M468.99,149.18c-3.54-.96-6.92-1.8-10.32-2.57-12.6-2.92-25.68-5.13-38.9-6.58l-.15-.02-.03-.14c-.06-.24-.15-.48-.28-.74l-.17-.33.39.04c16.67,1.83,33.18,4.9,49.07,9.11l.08.02.83,1.34-.52-.14Z"/>
  <path class="st0" d="M297.98,122.49l.09-.02c4.01-.99,8.16-1.91,12.7-2.82,5.04-1.02,10.33-1.96,15.72-2.8l.19-.03.06.17c.12.36.28.65.49.89l.23.27-.37.06c-10.04,1.55-20.02,3.51-29.65,5.84l-.51.12,1.06-1.68Z"/>
  <path class="st0" d="M343.16,115.6c0-.2-.02-.43-.07-.69l-.04-.21.23-.02c12.59-1.34,25.35-2.02,37.92-2.02,3.28,0,6.6.05,9.87.14,6.82.19,13.88.61,21.01,1.24h.12s.05.11.05.11c.21.38.49.71.85.98l.54.42-.7-.06c-7.35-.67-14.76-1.12-22.03-1.32-3.11-.09-6.28-.13-9.42-.13-12.54,0-25.35.69-38.1,2.06l-.24.03v-.52Z"/>
  <path class="st0" d="M385.24,15.01c-3.38-.1-6.81-.16-10.2-.16-3.16,0-6.37.05-9.53.14h-.39s.71-1.13.71-1.13l.18-.28h.12c2.8-.07,5.63-.1,8.4-.1,3.37,0,6.77.05,10.11.15h.12s.87,1.4.87,1.4h-.39Z"/>
  <path class="st0" d="M450.3,120.96c-8.73-1.77-17.86-3.24-27.13-4.37l-.26-.03.08-.23c.11-.3.17-.6.18-.9v-.22s.25.03.25.03c9.3,1.13,18.56,2.63,27.51,4.47l.09.02.99,1.59-1.72-.36Z"/>
  <path class="st0" d="M369.47,90.29c-.02-.32-.09-.64-.21-.95l-.1-.26h.3c4.32-.13,8.28-.19,12.13-.19.93,0,1.86,0,2.8.01h.21s0,.2,0,.2c0,.36.05.67.13.94l.07.26h-.29c-.76,0-1.52,0-2.28,0-3.95,0-8.05.06-12.54.19h-.21s-.01-.19-.01-.19Z"/>
  <path class="st0" d="M331.51,93.09c.09-.31.14-.64.14-.97v-.18l.19-.02c4.06-.5,7.72-.89,11.18-1.22l.24-.02v.56c0,.2.02.42.06.65l.03.21-.23.02c-3.5.33-7.21.73-11.37,1.23l-.32.04.08-.29Z"/>
  <path class="st0" d="M315.31,94.74l.03-.06.28-.45.1-.02c3.52-.59,7.07-1.1,9.77-1.48l.24-.03v.22c.02.3.08.6.2.92l.08.23-.25.03c-4.27.58-7.54,1.07-10.62,1.57l-.46.08.63-1.02Z"/>
  <path class="st0" d="M349.31,91.21c0-.24-.03-.51-.1-.83l-.05-.22.24-.02c4.93-.38,9.75-.68,14.32-.87l.36-.02-.15.3c-.15.3-.26.63-.32.98l-.03.16h-.18c-4.45.2-9.11.49-13.86.86l-.24.02v-.37Z"/>
  <path class="st0" d="M409.02,91.19c-4.89-.32-8.93-.53-12.72-.66-.56-.02-1.12-.03-1.68-.04-.42,0-.84-.02-1.26-.03h-.29s.09-.26.09-.26c.08-.23.13-.44.14-.62,0-.06,0-.11,0-.17v-.33s.22,0,.22,0c.31,0,.62.01.94.02.38,0,.77.01,1.15.03,4.04.14,8.33.37,13.5.73l.25.02-.05.22c-.06.27-.07.55-.04.87l.02.24-.26-.02Z"/>
  <path class="st0" d="M434.32,93.63c-3.92-.51-8.24-.98-13.58-1.49l-.21-.02v-.19c.04-.3.02-.59-.04-.86l-.06-.27.29.03c4.62.45,8.89.93,13.07,1.47h.11s.86,1.39.86,1.39l-.44-.06Z"/>
  <path class="st0" d="M419.57,70c-4.91-.45-9.74-.81-14.36-1.07l-.28-.02.09-.25c.07-.19.13-.41.14-.63.01-.19,0-.39,0-.58l-.02-.23h.25c4.68.29,9.19.64,13.4,1.04h.11s.32.53.32.53h0s.77,1.24.77,1.24l-.42-.04Z"/>
  <path class="st0" d="M330.9,69.77h.11c4.33-.56,8.97-1.06,14.2-1.53l.24-.02v.22c0,.16,0,.31.03.46.05.2.11.4.19.61l.09.24-.28.02c-5.59.48-10.54.99-15.15,1.56l-.44.05,1.01-1.63Z"/>
  <path class="st0" d="M354.51,68.84c.1-.38.12-.77.06-1.12l-.04-.22.24-.02c4.03-.27,7.56-.46,10.79-.59h.3s-.09.26-.09.26c-.12.37-.15.76-.09,1.15l.03.22h-.24c-3.22.13-6.73.31-10.74.56l-.29.02.07-.27Z"/>
  <path class="st0" d="M390.93,68.35c-3.18-.07-6.44-.11-9.69-.11-1.7,0-3.4.01-5.09.03h-.3s.09-.26.09-.26c.13-.38.2-.79.19-1.19v-.2s.21,0,.21,0c1.89-.02,3.78-.04,5.68-.04,2.77,0,5.52.03,8.18.08h.17s.04.15.04.15c.12.44.31.81.58,1.1l.1.1.33.35h-.5Z"/>
  <path class="st0" d="M346.16,45.35h.11c3.79-.42,7.67-.74,11.87-.98h.17s.05.14.05.14c.11.32.29.65.52.95l.22.29-.39.02c-4.38.24-8.78.6-13.07,1.07l-.43.05.96-1.53Z"/>
  <path class="st0" d="M405.51,47.49c-2.96-.39-6.16-.74-10.37-1.12l-.17-.02-.02-.16c-.05-.36-.13-.68-.25-.97l-.13-.3.35.03c3.81.35,6.98.68,9.96,1.07h.1s.96,1.53.96,1.53l-.45-.06Z"/>
  <path class="st0" d="M378.1,45.44c-1.7-.04-3.46-.08-5.19-.08-.83,0-1.65.02-2.48.03l-1.37.02v-.22c.04-.32,0-.65-.08-.97l-.07-.25,1.4-.02c.73-.01,1.46-.03,2.19-.03,2.1,0,4.14.05,6.4.1h.3s-.1.27-.1.27c-.11.28-.17.6-.18.95v.2s-.83-.02-.83-.02Z"/>
  <path class="st0" d="M394.34,29.61c-3.45-.3-7.03-.53-10.62-.69h-.18s-.03-.17-.03-.17c-.06-.37-.16-.69-.29-.98l-.14-.29h.35c3.32.16,6.69.37,10.29.68h.11s.34.55.34.55l.58.94-.42-.04Z"/>
  <path class="st0" d="M356.83,28.27l.33-.53h.12c2.81-.18,5.84-.3,9.28-.38h.29s-.07.25-.07.25c-.08.29-.12.61-.11.98v.2s-.21,0-.21,0c-3.82.1-6.94.23-9.82.41l-.41.03.61-.96Z"/>
  <path class="st0" d="M374.47.02h.12c.51-.02,1.02-.02,1.53-.02h.13l.1.17.79,1.25h-.37c-.93,0-1.87.02-2.8.04h-.39s.9-1.44.9-1.44Z"/>
  <path class="st0" d="M528.6,502.7c7.31-4.93,14.45-10.08,21.4-15.44-.9.3-1.8.22-2.6-.11-6.39,4.89-12.95,9.59-19.64,14.13.36.41.65.89.85,1.42Z"/>
  <path class="st0" d="M577.87,461.42c-6.32,5.88-12.85,11.57-19.56,17.07.05.36.07.72.02,1.07-.07.51-.22,1-.43,1.47,6.95-5.62,13.7-11.45,20.23-17.48-.31-.68-.38-1.42-.26-2.14Z"/>
  <path class="st0" d="M602.13,438.21c-.25-.18-.46-.39-.64-.6-5.29,5.8-10.78,11.44-16.42,16.95.09,0,.19,0,.28.01.6.08,1.13.3,1.58.61,3.18-3.11,6.3-6.27,9.37-9.48,2.22-2.33,4.41-4.69,6.57-7.06-.26-.12-.52-.26-.74-.42Z"/>
  <path class="st0" d="M629.53,405.89c-5.53,7.69-11.42,15.15-17.58,22.42-.54-.26-1.15-.42-1.82-.48,6.47-7.57,12.66-15.34,18.53-23.34l.87,1.39Z"/>
  <path class="st0" d="M508.23,538.29c-2.18,1.19-4.38,2.36-6.59,3.5-1.67.86-3.35,1.69-5.04,2.51.21.47.34.98.39,1.5,4.16-2.02,8.25-4.16,12.3-6.38-.42-.3-.78-.68-1.05-1.13Z"/>
  <path class="st0" d="M532.79,523.65c-4.48,2.89-9,5.73-13.6,8.44.24.46.38.94.41,1.44,4.65-2.77,9.22-5.63,13.73-8.56-.27-.4-.44-.85-.54-1.32Z"/>
  <path class="st0" d="M552.65,510.04c-3.82,2.76-7.67,5.47-11.58,8.12.44.22.84.5,1.18.84,3.96-2.69,7.86-5.45,11.74-8.24-.48-.17-.94-.41-1.34-.72Z"/>
  <path class="st0" d="M644.26,429.45c-8.67,9.97-18.03,19.49-27.5,28.72-16.76,16.37-34.72,31.7-53.65,45.9-.07-.5-.22-.98-.49-1.42,7.3-5.54,14.44-11.25,21.4-17.06,21.51-17.92,40.66-37.47,59.18-57.84l.81,1.31.25.4Z"/>
  <path class="st0" d="M167.46,495.24c-.35.5-.83.86-1.36,1.11,4.6,4.94,9.3,9.79,14.12,14.55.38-.44.85-.8,1.36-1.07-4.82-4.77-9.52-9.64-14.12-14.59Z"/>
  <path class="st0" d="M123.16,439.78c-.54.11-1.05.32-1.54.72,0,0-.01.01-.02.02-3.86-5.72-7.58-11.53-11.16-17.42l.93-1.48c3.79,6.15,7.72,12.2,11.8,18.16Z"/>
  <path class="st0" d="M127.68,446.28c-.14.16-.29.32-.45.45-.32.26-.65.42-.99.54,3.73,5.3,7.57,10.54,11.54,15.69.04-.03.07-.07.1-.1.4-.35.94-.59,1.51-.73-4.02-5.2-7.92-10.49-11.72-15.84Z"/>
  <path class="st0" d="M145.69,470.09c-.24.38-.53.73-.87,1.03-.11.1-.25.17-.39.26,3.82,4.73,7.72,9.4,11.73,13.99.44-.39,1.01-.67,1.62-.85-4.14-4.73-8.16-9.55-12.1-14.43Z"/>
  <path class="st0" d="M148.35,436.66c-.54.33-1,.75-1.31,1.26-1.6-2-3.19-4.01-4.75-6.05-6.93-8.99-13.75-18.18-20.06-27.64l.28-.44.91-1.45c7.98,11.67,16.23,23.13,24.94,34.31Z"/>
  <path class="st0" d="M153.5,443.16c-.43.39-.94.7-1.5.9,5.12,6.24,10.38,12.38,15.8,18.4.36-.38.8-.69,1.28-.92-5.4-6.02-10.56-12.16-15.58-18.39Z"/>
  <path class="st0" d="M177.98,471.22c-.3.4-.68.74-1.15,1.03,3.83,4.04,7.72,8.04,11.68,11.97.14-.48.37-.94.7-1.35-3.82-3.84-7.54-7.73-11.22-11.65Z"/>
  <path class="st0" d="M62.5,600h-2.61c-5.71-5.46-10.97-11.35-15.73-17.45-6.34-8.12-12.25-17.05-16.84-26.41l1.3-2.08c4.58,9.46,9.77,18.53,16.45,27.15,5.26,6.79,11.12,12.98,17.43,18.79Z"/>
  <path class="st0" d="M41.4,600h-2.16c-8.16-8.62-15.57-17.81-22.13-27.51l.91-1.45c6.92,10.24,14.73,19.91,23.38,28.96Z"/>
  <path class="st0" d="M21.44,600h-3.14c-3.81-3.83-7.45-7.85-10.88-12l1.19-1.9c4.05,4.81,8.34,9.42,12.83,13.91Z"/>
  <path class="st0" d="M732.16,570.18c-5.49,9.56-12.06,18.67-18.85,26.97-.78.96-1.58,1.91-2.39,2.85h-2.2c1.54-1.77,3.05-3.57,4.52-5.41,6.09-7.63,11.57-15.68,16.38-24.06.45-.78.88-1.55,1.3-2.34l1.24,1.98Z"/>
  <path class="st0" d="M741.23,584.71c-3.08,5.17-6.3,10.27-9.66,15.29h-2.39c3.79-5.6,7.44-11.29,10.94-17.06l1.1,1.77Z"/>
  <path class="st0" d="M750,598.75c-.25.42-.51.83-.78,1.25h-2.31c.67-1.02,1.32-2.04,1.96-3.06l.73,1.16.41.66Z"/>
  <path class="st0" d="M405.65,592.92c-3.07-.12-6.17-.16-9.23-.09-1.05.03-1.05,1.48,0,1.51,3.07.08,6.17.03,9.23-.09.93-.04.93-1.3,0-1.33Z"/>
  <path class="st0" d="M482.72,551.19c-2.22.78-4.64,1.57-6.71,2.64-.73.38-.24,1.5.58,1.27,2.28-.65,4.55-1.72,6.7-2.67.74-.33.21-1.52-.57-1.24Z"/>
  <path class="st0" d="M464,559.32c-3.01,1.07-6.14,2.29-8.97,3.73-.71.36-.23,1.51.57,1.24,3.03-1.01,6.09-2.38,8.95-3.77.7-.34.21-1.47-.55-1.2Z"/>
  <path class="st0" d="M437.16,569.51c-6.49,1.31-12.96,2.78-19.42,4.24-1.06.24-.61,1.75.45,1.51,6.45-1.47,12.92-2.94,19.32-4.56.83-.21.48-1.36-.35-1.19Z"/>
  <path class="st0" d="M513.03,511.73c-3.74,2.32-7.45,4.72-11.08,7.19-.8.54-.05,1.79.79,1.25,3.71-2.38,7.37-4.85,10.96-7.37.67-.47.06-1.52-.68-1.07Z"/>
  <path class="st0" d="M139.43,549.24c-2.18-2.14-4.46-4.21-6.67-6.33-.59-.57-1.52.3-.94.87,2.2,2.13,4.34,4.32,6.57,6.43.66.63,1.69-.33,1.04-.96Z"/>
  <path class="st0" d="M161.12,544.12c-2.23-2.42-4.8-4.79-7.33-6.94-.66-.56-1.55.28-.98.9,2.25,2.41,4.72,4.86,7.27,7,.7.59,1.64-.3,1.03-.96Z"/>
  <path class="st0" d="M107.58,548.21c-1.32-2.08-3.23-4.02-4.88-5.89-.55-.63-1.74.21-1.22.87,1.54,1.95,3.08,4.15,4.93,5.85.6.56,1.61-.16,1.18-.84Z"/>
  <path class="st0" d="M128.16,538.33c-1.38-1.43-3.02-2.68-4.54-3.98-1.39-1.18-2.73-2.56-4.33-3.5-.55-.32-1.36.35-.93.86,1.21,1.47,2.89,2.67,4.37,3.92,1.49,1.27,2.94,2.62,4.56,3.75.69.48,1.39-.51.88-1.05Z"/>
  <path class="st0" d="M105.88,571.51c-1.62-1.76-3.24-3.51-4.85-5.27-.67-.73-1.8.32-1.14,1.05,1.61,1.77,3.21,3.53,4.82,5.3.68.75,1.86-.33,1.17-1.08Z"/>
  <path class="st0" d="M220.08,508.25c-.98-.82-1.98-1.62-2.98-2.42-.92-.74-1.81-1.61-2.86-2.18-.73-.4-1.29.46-.84,1,.75.89,1.82,1.62,2.72,2.37.93.77,1.85,1.55,2.8,2.3.79.63,1.95-.41,1.16-1.07Z"/>
  <path class="st0" d="M2.57,600H.14c-.05-.04-.09-.08-.14-.12l.93-1.49s.09.05.13.09.09.07.13.11c.51.18.81.6,1.17,1.03.1.12.17.25.2.38Z"/>
</svg>